<svg version="1.2" xmlns="http://www.w3.org/2000/svg" viewBox="0 0 1000 800" width="2000" height="1500">
	<title>25581790_2202_w020_n001_1276a_p30_1276-ai</title>
	<defs>
		<linearGradient id="g1" x2="1" gradientUnits="userSpaceOnUse" gradientTransform="matrix(0,-205.695,255.278,0,198.774,554.987)">
			<stop offset=".016" stop-color="#f5ab45"/>
			<stop offset="1" stop-color="#f5c745"/>
		</linearGradient>
		<linearGradient id="g2" x2="1" gradientUnits="userSpaceOnUse" gradientTransform="matrix(295.033,0,0,51.146,131.262,544.864)">
			<stop offset=".016" stop-color="#f5ce45"/>
			<stop offset="1" stop-color="#f5c545"/>
		</linearGradient>
		<linearGradient id="g3" x2="1" gradientUnits="userSpaceOnUse" gradientTransform="matrix(295.07,0,0,116.804,131.225,584.76)">
			<stop offset=".016" stop-color="#f5ab45"/>
			<stop offset="1" stop-color="#f59545"/>
		</linearGradient>
		<linearGradient id="g4" x2="1" gradientUnits="userSpaceOnUse" gradientTransform="matrix(-94.232,0,0,-18.264,412.458,725.343)">
			<stop offset=".016" stop-color="#354656"/>
			<stop offset="1" stop-color="#4d5e6b"/>
		</linearGradient>
		<linearGradient id="g5" x2="1" gradientUnits="userSpaceOnUse" gradientTransform="matrix(95.654,0,0,44.565,317.638,706.852)">
			<stop offset=".016" stop-color="#213446"/>
			<stop offset="1" stop-color="#344756"/>
		</linearGradient>
		<linearGradient id="g6" x2="1" gradientUnits="userSpaceOnUse" gradientTransform="matrix(94.232,0,0,18.264,101.537,725.343)">
			<stop offset=".016" stop-color="#354656"/>
			<stop offset="1" stop-color="#4d5e6b"/>
		</linearGradient>
		<linearGradient id="g7" x2="1" gradientUnits="userSpaceOnUse" gradientTransform="matrix(238.54,0,0,188.76,138.12,526.987)">
			<stop offset=".016" stop-color="#212026"/>
			<stop offset="1" stop-color="#2b2a30"/>
		</linearGradient>
		<linearGradient id="g8" x2="1" gradientUnits="userSpaceOnUse" gradientTransform="matrix(0,-57.969,33.545,0,233.193,398.26)">
			<stop offset=".016" stop-color="#ffa67f"/>
			<stop offset="1" stop-color="#ff8b7c"/>
		</linearGradient>
		<linearGradient id="g9" x2="1" gradientUnits="userSpaceOnUse" gradientTransform="matrix(0,-103.882,75.58,0,236.499,376.766)">
			<stop offset="0" stop-color="#ffb595"/>
			<stop offset=".984" stop-color="#ffc2a9"/>
		</linearGradient>
		<linearGradient id="g10" x2="1" gradientUnits="userSpaceOnUse" gradientTransform="matrix(0,-28.872,22.646,0,248.651,341.483)">
			<stop offset="0" stop-color="#ffb595"/>
			<stop offset=".984" stop-color="#ff9a81"/>
		</linearGradient>
		<linearGradient id="g11" x2="1" gradientUnits="userSpaceOnUse" gradientTransform="matrix(0,-111.519,86.435,0,260.084,606.069)">
			<stop offset="0" stop-color="#ffb595"/>
			<stop offset=".984" stop-color="#ffc2a9"/>
		</linearGradient>
		<linearGradient id="g12" x2="1" gradientUnits="userSpaceOnUse" gradientTransform="matrix(0,-59.309,102.361,0,129.321,506.767)">
			<stop offset="0" stop-color="#ffb595"/>
			<stop offset=".984" stop-color="#ffc2a9"/>
		</linearGradient>
		<linearGradient id="g13" x2="1" gradientUnits="userSpaceOnUse" gradientTransform="matrix(0,-15.965,48.995,0,122.555,522.079)">
			<stop offset=".016" stop-color="#ffa67f"/>
			<stop offset="1" stop-color="#ff8b7c"/>
		</linearGradient>
		<linearGradient id="g14" x2="1" gradientUnits="userSpaceOnUse" gradientTransform="matrix(0,-30.144,25.766,0,288.298,334.109)">
			<stop offset=".016" stop-color="#ffffff"/>
			<stop offset=".992" stop-color="#f29dc8"/>
		</linearGradient>
		<linearGradient id="g15" x2="1" gradientUnits="userSpaceOnUse" gradientTransform="matrix(83.903,0,0,68.401,263.317,258.071)">
			<stop offset=".016" stop-color="#213446"/>
			<stop offset="1" stop-color="#344756"/>
		</linearGradient>
		<linearGradient id="g16" x2="1" gradientUnits="userSpaceOnUse" gradientTransform="matrix(0,-189.475,219.556,0,193.768,564.161)">
			<stop offset=".016" stop-color="#afcaeb"/>
			<stop offset="1" stop-color="#cfe5f3"/>
		</linearGradient>
		<linearGradient id="g17" x2="1" gradientUnits="userSpaceOnUse" gradientTransform="matrix(95.658,0,0,44.562,100.699,706.852)">
			<stop offset=".016" stop-color="#213446"/>
			<stop offset="1" stop-color="#344756"/>
		</linearGradient>
		<linearGradient id="g18" x2="1" gradientUnits="userSpaceOnUse" gradientTransform="matrix(24.566,0,0,9.489,296.003,298.24)">
			<stop offset=".016" stop-color="#3a4b5b"/>
			<stop offset="1" stop-color="#51616e"/>
		</linearGradient>
		<linearGradient id="g19" x2="1" gradientUnits="userSpaceOnUse" gradientTransform="matrix(13.579,0,0,9.634,333.642,302.165)">
			<stop offset="0" stop-color="#51616e"/>
			<stop offset=".984" stop-color="#3a4b5b"/>
		</linearGradient>
		<linearGradient id="g20" x2="1" gradientUnits="userSpaceOnUse" gradientTransform="matrix(0,-16.921,22.504,0,318.863,346.411)">
			<stop offset=".008" stop-color="#ffa5c8"/>
			<stop offset=".984" stop-color="#ffffff"/>
		</linearGradient>
		<linearGradient id="g21" x2="1" gradientUnits="userSpaceOnUse" gradientTransform="matrix(-6.445,2.269,-1.495,-4.248,311.142,341.74)">
			<stop offset=".016" stop-color="#ffffff"/>
			<stop offset=".992" stop-color="#f29dc8"/>
		</linearGradient>
		<linearGradient id="g22" x2="1" gradientUnits="userSpaceOnUse" gradientTransform="matrix(0,-16.853,17.869,0,259.35,335.388)">
			<stop offset=".016" stop-color="#ffffff"/>
			<stop offset=".992" stop-color="#f29dc8"/>
		</linearGradient>
		<linearGradient id="g23" x2="1" gradientUnits="userSpaceOnUse" gradientTransform="matrix(0,-31.864,13.88,0,300.955,339.762)">
			<stop offset=".016" stop-color="#ffffff"/>
			<stop offset=".992" stop-color="#ea9dc8"/>
		</linearGradient>
		<linearGradient id="g24" x2="1" gradientUnits="userSpaceOnUse" gradientTransform="matrix(14.313,0,0,21.784,325.779,267.746)">
			<stop offset=".016" stop-color="#ffffff"/>
			<stop offset=".992" stop-color="#c2798b"/>
		</linearGradient>
		<linearGradient id="g25" x2="1" gradientUnits="userSpaceOnUse" gradientTransform="matrix(22.187,0,0,7.358,285.326,280.076)">
			<stop offset=".016" stop-color="#213446"/>
			<stop offset="1" stop-color="#344756"/>
		</linearGradient>
		<linearGradient id="g26" x2="1" gradientUnits="userSpaceOnUse" gradientTransform="matrix(0,-23.551,41.958,0,275.696,413.174)">
			<stop offset=".008" stop-color="#a9afd1"/>
			<stop offset=".984" stop-color="#ffffff"/>
		</linearGradient>
		<linearGradient id="g27" x2="1" gradientUnits="userSpaceOnUse" gradientTransform="matrix(0,-15.303,12.152,0,181.318,487.963)">
			<stop offset=".008" stop-color="#a9afd1"/>
			<stop offset=".984" stop-color="#ffffff"/>
		</linearGradient>
		<linearGradient id="g28" x2="1" gradientUnits="userSpaceOnUse" gradientTransform="matrix(0,-51.181,25.706,0,139.798,490.485)">
			<stop offset=".008" stop-color="#a9afd1"/>
			<stop offset=".984" stop-color="#ffffff"/>
		</linearGradient>
		<linearGradient id="g29" x2="1" gradientUnits="userSpaceOnUse" gradientTransform="matrix(0,-50.685,8.568,0,69.086,465.368)">
			<stop offset=".008" stop-color="#a9afd1"/>
			<stop offset=".984" stop-color="#ffffff"/>
		</linearGradient>
		<linearGradient id="g30" x2="1" gradientUnits="userSpaceOnUse" gradientTransform="matrix(0,-26.069,30.695,0,318.403,480.874)">
			<stop offset=".008" stop-color="#a9afd1"/>
			<stop offset=".984" stop-color="#ffffff"/>
		</linearGradient>
		<linearGradient id="g31" x2="1" gradientUnits="userSpaceOnUse" gradientTransform="matrix(0,-10.181,36.284,0,357.745,490.487)">
			<stop offset=".008" stop-color="#a9afd1"/>
			<stop offset=".984" stop-color="#ffffff"/>
		</linearGradient>
		<linearGradient id="g32" x2="1" gradientUnits="userSpaceOnUse" gradientTransform="matrix(0,-34.346,105.465,0,262.434,554.945)">
			<stop offset=".008" stop-color="#a9afd1"/>
			<stop offset=".984" stop-color="#ffffff"/>
		</linearGradient>
		<linearGradient id="g33" x2="1" gradientUnits="userSpaceOnUse" gradientTransform="matrix(0,-25.557,80.536,0,257.425,541.482)">
			<stop offset=".008" stop-color="#a9afd1"/>
			<stop offset=".984" stop-color="#ffffff"/>
		</linearGradient>
		<linearGradient id="g34" x2="1" gradientUnits="userSpaceOnUse" gradientTransform="matrix(0,-88.674,29.005,0,163.336,526.473)">
			<stop offset=".008" stop-color="#a9afd1"/>
			<stop offset=".984" stop-color="#ffffff"/>
		</linearGradient>
		<linearGradient id="g35" x2="1" gradientUnits="userSpaceOnUse" gradientTransform="matrix(0,-76.299,12.808,0,3.718,514.098)">
			<stop offset=".008" stop-color="#a9afd1"/>
			<stop offset=".984" stop-color="#ffffff"/>
		</linearGradient>
		<linearGradient id="g36" x2="1" gradientUnits="userSpaceOnUse" gradientTransform="matrix(0,-23.768,41.98,0,113.422,493.495)">
			<stop offset=".008" stop-color="#f29dc8"/>
			<stop offset=".984" stop-color="#ffffff"/>
		</linearGradient>
		<linearGradient id="g37" x2="1" gradientUnits="userSpaceOnUse" gradientTransform="matrix(0,-35.929,23.321,0,245.156,527.096)">
			<stop offset=".008" stop-color="#a9afd1"/>
			<stop offset=".984" stop-color="#ffffff"/>
		</linearGradient>
		<linearGradient id="g38" x2="1" gradientUnits="userSpaceOnUse" gradientTransform="matrix(0,-611.654,47.784,0,-3245.794,726.547)">
			<stop offset=".016" stop-color="#afcaeb"/>
			<stop offset="1" stop-color="#cfe5f3"/>
		</linearGradient>
		<linearGradient id="g39" x2="1" gradientUnits="userSpaceOnUse" gradientTransform="matrix(0,-656.26,231.44,0,-133.089,726.54)">
			<stop offset=".016" stop-color="#cddef3"/>
			<stop offset="1" stop-color="#e7f2f9"/>
		</linearGradient>
		<linearGradient id="g40" x2="1" gradientUnits="userSpaceOnUse" gradientTransform="matrix(42.115,0,0,194.751,716.258,479.158)">
			<stop offset=".016" stop-color="#212026"/>
			<stop offset="1" stop-color="#2b2a30"/>
		</linearGradient>
		<linearGradient id="g41" x2="1" gradientUnits="userSpaceOnUse" gradientTransform="matrix(0,-25.255,27.349,0,696.549,708.944)">
			<stop offset=".016" stop-color="#afcaeb"/>
			<stop offset="1" stop-color="#cfe5f3"/>
		</linearGradient>
		<linearGradient id="g42" x2="1" gradientUnits="userSpaceOnUse" gradientTransform="matrix(0,-45.247,41.406,0,724.597,298.007)">
			<stop offset=".016" stop-color="#ffa67f"/>
			<stop offset="1" stop-color="#ff8b7c"/>
		</linearGradient>
		<linearGradient id="g43" x2="1" gradientUnits="userSpaceOnUse" gradientTransform="matrix(0,-92.471,95.316,0,712.203,262.447)">
			<stop offset="0" stop-color="#ffb595"/>
			<stop offset=".984" stop-color="#ffc2a9"/>
		</linearGradient>
		<linearGradient id="g44" x2="1" gradientUnits="userSpaceOnUse" gradientTransform="matrix(15.987,-24.043,18.858,12.539,795.07,265.924)">
			<stop offset="0" stop-color="#ffb595"/>
			<stop offset=".984" stop-color="#ff9a81"/>
		</linearGradient>
		<linearGradient id="g45" x2="1" gradientUnits="userSpaceOnUse" gradientTransform="matrix(9.332,-14.034,14.88,9.894,789.536,254.925)">
			<stop offset=".016" stop-color="#ffffff"/>
			<stop offset=".992" stop-color="#f29dc8"/>
		</linearGradient>
		<linearGradient id="g46" x2="1" gradientUnits="userSpaceOnUse" gradientTransform="matrix(0,-72.22,72.129,0,518.959,399.038)">
			<stop offset="0" stop-color="#ffb595"/>
			<stop offset=".984" stop-color="#ffc2a9"/>
		</linearGradient>
		<linearGradient id="g47" x2="1" gradientUnits="userSpaceOnUse" gradientTransform="matrix(64.576,0,0,71.166,741.079,167.03)">
			<stop offset=".016" stop-color="#213446"/>
			<stop offset="1" stop-color="#344756"/>
		</linearGradient>
		<linearGradient id="g48" x2="1" gradientUnits="userSpaceOnUse" gradientTransform="matrix(0,-68.068,69.838,0,744.662,228.466)">
			<stop offset=".016" stop-color="#f5ab45"/>
			<stop offset="1" stop-color="#f5c745"/>
		</linearGradient>
		<linearGradient id="g49" x2="1" gradientUnits="userSpaceOnUse" gradientTransform="matrix(0,-217.66,101.056,0,497.587,487.998)">
			<stop offset=".016" stop-color="#f5ab45"/>
			<stop offset="1" stop-color="#f5c745"/>
		</linearGradient>
		<linearGradient id="g50" x2="1" gradientUnits="userSpaceOnUse" gradientTransform="matrix(0,-222.88,77,0,401.25,687.698)">
			<stop offset="0" stop-color="#403f44"/>
			<stop offset="1" stop-color="#2b2a30"/>
		</linearGradient>
		<linearGradient id="g51" x2="1" gradientUnits="userSpaceOnUse" gradientTransform="matrix(0,-99.288,180.75,0,641.324,393.246)">
			<stop offset=".016" stop-color="#f5ab45"/>
			<stop offset="1" stop-color="#f5c745"/>
		</linearGradient>
		<linearGradient id="g52" x2="1" gradientUnits="userSpaceOnUse" gradientTransform="matrix(0,-22.291,5.604,0,546.396,376.213)">
			<stop offset="0" stop-color="#403f44"/>
			<stop offset="1" stop-color="#2b2a30"/>
		</linearGradient>
		<linearGradient id="g53" x2="1" gradientUnits="userSpaceOnUse" gradientTransform="matrix(110.934,0,0,49.859,617.004,697.631)">
			<stop offset=".016" stop-color="#213446"/>
			<stop offset="1" stop-color="#344756"/>
		</linearGradient>
		<linearGradient id="g54" x2="1" gradientUnits="userSpaceOnUse" gradientTransform="matrix(15.781,0,0,19.278,753.01,192.371)">
			<stop offset=".016" stop-color="#3a4b5b"/>
			<stop offset="1" stop-color="#51616e"/>
		</linearGradient>
		<linearGradient id="g55" x2="1" gradientUnits="userSpaceOnUse" gradientTransform="matrix(6.144,0,0,15.323,731.092,179.108)">
			<stop offset=".016" stop-color="#3a4b5b"/>
			<stop offset="1" stop-color="#51616e"/>
		</linearGradient>
		<linearGradient id="g56" x2="1" gradientUnits="userSpaceOnUse" gradientTransform="matrix(8.668,-14.532,19.326,11.529,729.633,231.237)">
			<stop offset=".008" stop-color="#ffa5c8"/>
			<stop offset=".984" stop-color="#ffffff"/>
		</linearGradient>
		<linearGradient id="g57" x2="1" gradientUnits="userSpaceOnUse" gradientTransform="matrix(7.951,2.799,-1.845,5.24,734.404,232.595)">
			<stop offset=".016" stop-color="#ffffff"/>
			<stop offset=".992" stop-color="#f29dc8"/>
		</linearGradient>
		<linearGradient id="g58" x2="1" gradientUnits="userSpaceOnUse" gradientTransform="matrix(0,-37.411,62.563,0,736.957,199.657)">
			<stop offset=".016" stop-color="#f7b862"/>
			<stop offset="1" stop-color="#f8d981"/>
		</linearGradient>
		<linearGradient id="g59" x2="1" gradientUnits="userSpaceOnUse" gradientTransform="matrix(47.784,0,0,17.475,688.386,361.673)">
			<stop offset=".008" stop-color="#f29dc8"/>
			<stop offset=".984" stop-color="#ffffff"/>
		</linearGradient>
		<linearGradient id="g60" x2="1" gradientUnits="userSpaceOnUse" gradientTransform="matrix(46.857,0,0,25.326,721.832,272.417)">
			<stop offset=".016" stop-color="#ffffff"/>
			<stop offset=".992" stop-color="#f29dc8"/>
		</linearGradient>
		<linearGradient id="g61" x2="1" gradientUnits="userSpaceOnUse" gradientTransform="matrix(0,-132.28,22.86,0,383.626,445.938)">
			<stop offset=".008" stop-color="#f29dc8"/>
			<stop offset=".984" stop-color="#ffffff"/>
		</linearGradient>
		<linearGradient id="g62" x2="1" gradientUnits="userSpaceOnUse" gradientTransform="matrix(0,-40.018,20.129,0,703.021,457.799)">
			<stop offset=".016" stop-color="#f4babb"/>
			<stop offset=".992" stop-color="#d670af"/>
		</linearGradient>
		<linearGradient id="g63" x2="1" gradientUnits="userSpaceOnUse" gradientTransform="matrix(30.695,0,0,22.792,721.188,275.217)">
			<stop offset=".008" stop-color="#f29dc8"/>
			<stop offset=".984" stop-color="#ffffff"/>
		</linearGradient>
		<linearGradient id="g64" x2="1" gradientUnits="userSpaceOnUse" gradientTransform="matrix(0,-38.163,17.092,0,670.314,479.156)">
			<stop offset=".008" stop-color="#f29dc8"/>
			<stop offset=".984" stop-color="#ffffff"/>
		</linearGradient>
		<linearGradient id="g65" x2="1" gradientUnits="userSpaceOnUse" gradientTransform="matrix(71.764,0,0,5.183,629.541,342.181)">
			<stop offset=".008" stop-color="#f29dc8"/>
			<stop offset=".984" stop-color="#ffffff"/>
		</linearGradient>
		<linearGradient id="g66" x2="1" gradientUnits="userSpaceOnUse" gradientTransform="matrix(34.648,0,0,13.905,713.746,357.154)">
			<stop offset=".008" stop-color="#f29dc8"/>
			<stop offset=".984" stop-color="#ffffff"/>
		</linearGradient>
	</defs>
	<style>
		.s0 { fill: #f8dd7e } 
		.s1 { fill: #d37c30 } 
		.s2 { fill: #2b2a30 } 
		.s3 { fill: url(#g1) } 
		.s4 { fill: url(#g2) } 
		.s5 { fill: url(#g3) } 
		.s6 { fill: #f8db76 } 
		.s7 { opacity: .3;mix-blend-mode: multiply;fill: #d07cad } 
		.s8 { opacity: .2;mix-blend-mode: multiply;fill: #d07cad } 
		.s9 { mix-blend-mode: multiply;fill: #e392ad } 
		.s10 { opacity: .8;mix-blend-mode: multiply;fill: #d07cad } 
		.s11 { fill: #1c1b21 } 
		.s12 { fill: url(#g4) } 
		.s13 { fill: #a6cde5 } 
		.s14 { fill: url(#g5) } 
		.s15 { fill: url(#g6) } 
		.s16 { fill: url(#g7) } 
		.s17 { fill: url(#g8) } 
		.s18 { mix-blend-mode: multiply;fill: #b892ad } 
		.s19 { fill: url(#g9) } 
		.s20 { opacity: .8;mix-blend-mode: multiply;fill: #b892ad } 
		.s21 { fill: url(#g10) } 
		.s22 { fill: url(#g11) } 
		.s23 { fill: url(#g12) } 
		.s24 { fill: url(#g13) } 
		.s25 { mix-blend-mode: multiply;fill: url(#g14) } 
		.s26 { fill: #444349 } 
		.s27 { fill: #f5ce45 } 
		.s28 { fill: #f5a445 } 
		.s29 { fill: url(#g15) } 
		.s30 { fill: url(#g16) } 
		.s31 { fill: url(#g17) } 
		.s32 { fill: url(#g18) } 
		.s33 { fill: url(#g19) } 
		.s34 { fill: #ffe4ec } 
		.s35 { fill: #344756 } 
		.s36 { fill: #ffffff } 
		.s37 { fill: #ea7f88 } 
		.s38 { opacity: .5;mix-blend-mode: multiply;fill: url(#g20) } 
		.s39 { mix-blend-mode: multiply;fill: #d16d9a } 
		.s40 { mix-blend-mode: multiply;fill: #ea7f88 } 
		.s41 { mix-blend-mode: multiply;fill: #b87fad } 
		.s42 { mix-blend-mode: multiply;fill: url(#g21) } 
		.s43 { mix-blend-mode: multiply;fill: #feb1c8 } 
		.s44 { mix-blend-mode: multiply;fill: url(#g22) } 
		.s45 { mix-blend-mode: multiply;fill: url(#g23) } 
		.s46 { opacity: .5;mix-blend-mode: multiply;fill: #e392ad } 
		.s47 { mix-blend-mode: multiply;fill: url(#g24) } 
		.s48 { fill: url(#g25) } 
		.s49 { opacity: .8;mix-blend-mode: multiply;fill: #9c92ad } 
		.s50 { opacity: .8;mix-blend-mode: multiply;fill: url(#g26) } 
		.s51 { opacity: .8;mix-blend-mode: multiply;fill: url(#g27) } 
		.s52 { opacity: .8;mix-blend-mode: multiply;fill: url(#g28) } 
		.s53 { opacity: .8;mix-blend-mode: multiply;fill: url(#g29) } 
		.s54 { opacity: .8;mix-blend-mode: multiply;fill: url(#g30) } 
		.s55 { opacity: .8;mix-blend-mode: multiply;fill: url(#g31) } 
		.s56 { opacity: .8;mix-blend-mode: multiply;fill: url(#g32) } 
		.s57 { opacity: .8;mix-blend-mode: multiply;fill: url(#g33) } 
		.s58 { opacity: .8;mix-blend-mode: multiply;fill: url(#g34) } 
		.s59 { opacity: .8;mix-blend-mode: multiply;fill: url(#g35) } 
		.s60 { fill: #ffd8cc } 
		.s61 { opacity: .5;mix-blend-mode: multiply;fill: url(#g36) } 
		.s62 { mix-blend-mode: multiply;fill: #d07cad } 
		.s63 { opacity: .8;mix-blend-mode: soft-light;fill: #90aa9a } 
		.s64 { opacity: .5;mix-blend-mode: soft-light;fill: #90aa9a } 
		.s65 { fill: #cc3b5e } 
		.s66 { opacity: .5;mix-blend-mode: multiply;fill: #ee7cad } 
		.s67 { fill: #ffc4bd } 
		.s68 { mix-blend-mode: multiply;fill: #bb6bad } 
		.s69 { opacity: .3;mix-blend-mode: multiply;fill: #9c92ad } 
		.s70 { opacity: .6;mix-blend-mode: multiply;fill: #9c92ad } 
		.s71 { opacity: .3;mix-blend-mode: multiply;fill: #ee7cad } 
		.s72 { opacity: .5;mix-blend-mode: soft-light;fill: #dde8ff } 
		.s73 { opacity: .3;mix-blend-mode: multiply;fill: #c3bdce } 
		.s74 { opacity: .5;mix-blend-mode: multiply;fill: #c3bdce } 
		.s75 { opacity: .2;mix-blend-mode: multiply;fill: #e392ad } 
		.s76 { opacity: .5;mix-blend-mode: soft-light;fill: #ffffff } 
		.s77 { opacity: .3;mix-blend-mode: multiply;fill: #feb1c8 } 
		.s78 { opacity: .5;mix-blend-mode: multiply;fill: url(#g37) } 
		.s79 { opacity: .5;mix-blend-mode: multiply;fill: #bb6bad } 
		.s80 { fill: #ffe2d6 } 
		.s81 { fill: url(#g38) } 
		.s82 { fill: #a9b6ce } 
		.s83 { fill: url(#g39) } 
		.s84 { fill: #425462 } 
		.s85 { opacity: .8;mix-blend-mode: multiply;fill: #aca4ad } 
		.s86 { fill: #213446 } 
		.s87 { fill: #98b8e5 } 
		.s88 { fill: url(#g40) } 
		.s89 { fill: #eb7f29 } 
		.s90 { fill: url(#g41) } 
		.s91 { fill: url(#g42) } 
		.s92 { fill: url(#g43) } 
		.s93 { fill: url(#g44) } 
		.s94 { mix-blend-mode: multiply;fill: url(#g45) } 
		.s95 { fill: url(#g46) } 
		.s96 { fill: url(#g47) } 
		.s97 { fill: url(#g48) } 
		.s98 { fill: url(#g49) } 
		.s99 { fill: url(#g50) } 
		.s100 { fill: url(#g51) } 
		.s101 { fill: url(#g52) } 
		.s102 { fill: url(#g53) } 
		.s103 { fill: url(#g54) } 
		.s104 { fill: url(#g55) } 
		.s105 { opacity: .5;mix-blend-mode: multiply;fill: url(#g56) } 
		.s106 { mix-blend-mode: multiply;fill: url(#g57) } 
		.s107 { fill: url(#g58) } 
		.s108 { mix-blend-mode: multiply;fill: url(#g59) } 
		.s109 { mix-blend-mode: multiply;fill: url(#g60) } 
		.s110 { opacity: .3;mix-blend-mode: multiply;fill: #f3bdce } 
		.s111 { mix-blend-mode: multiply;fill: url(#g61) } 
		.s112 { mix-blend-mode: multiply;fill: url(#g62) } 
		.s113 { mix-blend-mode: multiply;fill: url(#g63) } 
		.s114 { opacity: .5;mix-blend-mode: multiply;fill: url(#g64) } 
		.s115 { mix-blend-mode: multiply;fill: #e3b8ad } 
		.s116 { mix-blend-mode: multiply;fill: #e3cac6 } 
		.s117 { fill: #4d5e6b } 
		.s118 { opacity: .3;mix-blend-mode: multiply;fill: #ce9fb8 } 
		.s119 { opacity: .5;mix-blend-mode: soft-light;fill: #c0e8ff } 
		.s120 { fill: #cfe5f3 } 
		.s121 { mix-blend-mode: multiply;fill: url(#g65) } 
		.s122 { mix-blend-mode: multiply;fill: url(#g66) } 
		.s123 { opacity: .8;mix-blend-mode: multiply;fill: #e392ad } 
		.s124 { fill: #7e91b5 } 
		.s125 { fill: #536370 } 
		.s126 { opacity: .5;mix-blend-mode: multiply;fill: #aca4ad } 
		.s127 { opacity: .3;mix-blend-mode: multiply;fill: #aca4ad } 
	</style>
	<g id="_Artboards_">
	</g>
	<g id="background">
	</g>
	<g id="illustration">
		<g id="&lt;Group&gt;">
			<g id="&lt;Group&gt;">
				<g id="&lt;Group&gt;">
					<path id="&lt;Path&gt;" class="s0" d="m131.3 596c0 0 45.5-9.8 84.9-8.3 0 0-59.4 5-84.9 8.3z"/>
					<path id="&lt;Path&gt;" class="s1" d="m398.1 476.2c0 0-8.6 60.2-9.1 68.7-0.5 8.4 11 18.2 17.6 25.5 6.7 7.4-252.6-2.5-252.6-2.5 0 0 12.9-12.9 14.9-17.6 2-4.7-6.6-43.7-8.5-74.1-1.8-30.4 237.7 0 237.7 0z"/>
					<g id="&lt;Group&gt;">
						<path id="&lt;Path&gt;" class="s2" d="m154 699.6c0 0 3 5.5 6.6 7.3 3.6 1.7 221.9 4 229.3 4.2 7.5 0.1 11.3-9.5 11.3-9.5z"/>
					</g>
					<path id="&lt;Path&gt;" class="s3" d="m381.8 549.4c-2.5 1.3-24.4 2.4-53 3.2-36.5 1-83.9 1.6-116.4 2-22.3 0.2-37.6 0.3-37.6 0.3-2.6 1.1-6.7-20.1-10.6-48.1-1-7.7-2-15.8-3-24.1-5.1-43.1-8.8-91.4-6.5-101.6 2.7-11.9 61.9-31.1 128.5-31.8 8.5-0.1 17.2 0.1 25.9 0.7q0.1 0 0.1 0c35.2 2.4 70.7 10.8 99.5 28.8 4.7 3-18.8 166.5-26.9 170.6z"/>
					<path id="&lt;Path&gt;" class="s4" d="m131.3 596c0 0 218.6-18.9 295-2.9 0 0-31.9-39.8-44.5-43.6-32.9-10.2-183.9-1.3-207 5.4-23.1 6.8-43.5 41.1-43.5 41.1z"/>
					<path id="&lt;Path&gt;" class="s5" d="m131.3 596c0 0-1.7 55.7 17.9 105.6h257.8c0 0 18.7-50 19.3-108.5 0 0-111.6-20.6-295 2.9z"/>
					<g id="&lt;Group&gt;">
						<path id="&lt;Path&gt;" class="s6" d="m154.7 381.1c-1.8 13.1 58.7-13.8 162.2-9.4 73.9 3.1 87.4 10.5 89.9 10.2 2.4-0.3-56.1-39.1-142.9-31.1-86.7 8-108.7 27-109.2 30.3z"/>
					</g>
					<path id="&lt;Path&gt;" class="s0" d="m163.2 384.7c0 0 20.1-4.3 51.6-8.9 31.4-4.5 47.2-3.7 47.2-3.7z"/>
					<path id="&lt;Path&gt;" class="s7" d="m393.6 503c-4.1 15.5-26.4 44.2-117.5 45.1-91 1-108.8-21-108.8-21 0 0 2.7 22.4 6.7 27.5 0 0 94.4-4.4 147.9-5.5 53.4-1.2 62.7 1.6 62.7 1.6l-2.8-1.2c0 0 5-4.9 11.8-46.5z"/>
					<g id="&lt;Group&gt;">
						<path id="&lt;Path&gt;" class="s2" d="m389.9 711.1c0 0-3.8 21.6-5.5 21.6-1.6 0.1-6.6 1.1-8.4 0-1.8-1-6-22.2-6-22.2z"/>
					</g>
					<g id="&lt;Group&gt;">
						<path id="&lt;Path&gt;" class="s2" d="m164.4 706.1c0 0 3.9 26.5 5.5 26.5 1.7 0.1 6.6 1.4 8.4 0 1.8-1.3 6-27.3 6-27.3z"/>
					</g>
					<path id="&lt;Path&gt;" class="s0" d="m329.9 584.8c0 0 35.4-1.4 57.4 0 22.1 1.4 39 8.3 39 8.3 0 0-48.5-6.5-96.4-8.3z"/>
					<path id="&lt;Path&gt;" class="s7" d="m154.1 386.6c0.6-5.5 7.9 6.5 17.4 64 9.6 57.4 2.5 104 2.5 104 0 0-15.9-50.3-19.9-168z"/>
					<path id="&lt;Path&gt;" class="s7" d="m409.3 384.4c0 0-13.7 23.4-21.2 83.4-6.4 51.5-6.3 81.7-6.3 81.7 0 0 6.6-1.1 15.7-69.2 8.1-60.8 11.8-95.9 11.8-95.9z"/>
					<path id="&lt;Path&gt;" class="s8" d="m137.7 597.8c-10.5 5.9 2.4 77.5 15 95.8 12.6 18.3 48.3-21 56.6-61.6 8.4-40.5 8.1-43.2 3.1-43.4-4.9-0.2-61 1.4-74.7 9.2z"/>
					<path id="&lt;Path&gt;" class="s8" d="m330.8 588.6c-9.4 1 28.5 91.4 39.2 105 10.7 13.6 39.1-3.6 43.9-14.2 4.7-10.6 11.3-73.3 6.9-78.6-4.4-5.3-66.8-14.5-90-12.2z"/>
					<path id="&lt;Path&gt;" class="s0" d="m322.8 371.9c0 0 24.7-2 54.4 2.8 29.8 4.8 30.9 8.1 30.9 8.1 0 0-44-10.1-85.3-10.9z"/>
					<path id="&lt;Path&gt;" class="s9" d="m370 710.5c0 0 1.8 10.7 5.8 16.4 3.9 5.7 14.1-15.8 14.1-15.8z"/>
					<path id="&lt;Path&gt;" class="s10" d="m392.5 493.4c-0.5 9.6-22.7 56.1-39.9 56.9-11 0.5-21.2-4.3-23.8 2.3-1.5 3.7-0.6 11.2 4.1 25.5 12.7 39.2-5.8 132.1-5.8 132.1l-16.3-0.1c0 0 6.7-78.1-1.6-100.5-3.6-9.6-19.7-35.2-48-38.1-19.4-1.9-46.1 15.5-53.8 27.9-13.4 21.8 0 108.8 0 108.8h-17.2c0 0 3.2-98.9 5-116.8 1.1-11.2 9.1-24.9 17.2-36.8 4.8-7 9.6-13.4 13-18.1 9.3-13-3.2-38.7-12.3-27.4-7.1 8.9-31.3 4.4-48.9-2.3-1-7.7-2-15.8-3-24.1q2.3-0.9 4.9-1.8c37.7-14 66.7-64.1 85.3-82.3 18.6-18.2-1-36.5 7.4-41.3 7.9-4.6 16.3-7 24.4-8 9.5-1.2 18.6-0.5 25.9 0.7q0.1 0 0.1 0c10.2 1.7 17.1 4.4 17.1 4.4 0 0 17 42.7 0.9 35.2-16.1-7.4 4.8 7.7 18.5 27.9 5 7.4 10.9 25.5 17.5 33.5 13.1 15.8 30 26.9 29.3 42.4z"/>
				</g>
				<g id="&lt;Group&gt;">
					<g id="&lt;Group&gt;">
						<path id="&lt;Path&gt;" class="s11" d="m138.1 690.5c0 0 26.7 20.2 55.8 22.5 0 0-15-49.7-55.8-22.5z"/>
						<g id="&lt;Group&gt;">
							<path id="&lt;Path&gt;" class="s11" d="m324.2 715.8c0 0 40.5-8.6 52.5-26.9 0 0-34.8-11-52.5 26.9z"/>
						</g>
						<path id="&lt;Path&gt;" class="s12" d="m318.2 730.9c0 0 13.5-7 46.3-5.3 32.8 1.7 48 17.4 48 17.4 0 0-57.8 4.6-94.3-12.1z"/>
						<g id="&lt;Group&gt;">
							<path id="&lt;Path&gt;" class="s13" d="m354.5 682.2c0 0 1.5 10.4 2 12 0.5 1.5 2.3 0.8 2.5 1.6 0.3 0.8-0.2 1.1 0 3.2 0.3 2 1.5 1.2 2 2.1 0.6 0.9 3.8 5.9 12.4 12.1 8.6 6.2 31.7 18.3 35.1 25.3 1.9 3.9-26.7 0.8-38.4-0.9-11.6-1.6-18.5-3.5-28.4-4-10.7-0.7-11.7-5.1-10.7-10.5 0.8-4.5 3.4-7.6 5-31.6 1.7-24 18.5-9.3 18.5-9.3z"/>
						</g>
						<path id="&lt;Path&gt;" class="s14" d="m412.6 748.8c-1.6 0.7-13.8 3.9-38.4 2 0 0-14.4-2.6-22.3-4.4-4.4-1-16.3-2.7-19.2-3.1q0 0-0.1 0-0.3 0-0.5-0.1c-8-2.3-13.5-4.4-14-5.6-1.1-2.8 0.1-6.7 0.1-6.7 4.1 1.5 11.5 2.7 11.5 2.7 6-13.9 31.3-32.5 46.2-25.1 14.8 7.5 39 31.5 36.6 34.5 0 0 1.7 5.2 0.1 5.8z"/>
						<path id="&lt;Path&gt;" class="s15" d="m195.8 730.9c0 0-13.5-7-46.3-5.3-32.8 1.7-48 17.4-48 17.4 0 0 57.8 4.6 94.3-12.1z"/>
						<g id="&lt;Group&gt;">
							<path id="&lt;Path&gt;" class="s13" d="m159.5 682.2c0 0-1.5 10.4-2 12-0.5 1.5-2.3 0.8-2.5 1.6-0.3 0.8 0.2 1.1 0 3.2-0.3 2-1.5 1.2-2.1 2.1-0.5 0.9-3.7 5.9-12.3 12.1-8.6 6.2-31.7 18.3-35.1 25.3-1.9 3.9 26.7 0.8 38.4-0.9 11.6-1.6 18.5-3.5 28.4-4 10.7-0.7 11.7-5.1 10.7-10.5-0.8-4.5-3.4-7.6-5-31.6-1.7-24-18.5-9.3-18.5-9.3z"/>
						</g>
						<path id="&lt;Path&gt;" class="s16" d="m376.7 688.8c-24.3-6.8-52.5 26.9-52.5 26.9 0 0-7.3-24.2-6-53.8 1.2-29.5 2.5-67.4 2.1-70.8-0.3-3.3-10.5-5.5-18.3-10.3-7.8-4.8-18.7-11.6-34.6-12.6-15.9-1-22 1.5-36.1 8.3-14.2 6.9-26.3 10.8-29 15.3-0.4 0.7-0.7 1.7-1.1 2.9q0 0 0 0c-1.9 6.8-2.9 22.5-3.5 56.9-0.7 40.7-3.8 61.4-3.8 61.4 0 0-9.4-18-28.2-23.5-18.7-5.6-27.6 1-27.6 1 2.1-14.4 18.9-72.5 22.7-92 3.8-19.4 2.3-29.5 10.3-34.3 8.1-4.9 14.8-11.8 25.3-21.6 10.5-9.9 19.2-15.6 19.2-15.6h102.1c0 0 12.2 7.3 20.9 16.4l0.1 0.1c1.4 1.5 2.8 3.1 3.9 4.7l0.1 0.1q0.8 1.1 1.5 2.1c6.2 10 15.6 19.3 15.9 25.9 0.2 6.6-1.1 14.5 2 38.3 3 23.7 14.6 74.2 14.6 74.2z"/>
						<path id="&lt;Path&gt;" class="s17" d="m277.1 340.3c0 0-4.1 24.3-10 40.7 0 0-4 11.8 9.4 16.4 13.4 4.7 21.2-12.1 21.2-12.1 0 0 0.6-8.6 2.3-16.9 1.6-8.3-22.9-28.1-22.9-28.1z"/>
						<path id="&lt;Path&gt;" class="s18" d="m319.9 587.5c0 0 3.9-20.7 7.5-27.6 3.7-6.9 14.9-10.3 16-9.6 1.1 0.7-3.5-6.2-5.6-7.4-2.2-1.2-13.3 5.7-16.3 12.9-3 7.2-2.6 31.7-2.6 31.7z"/>
						<path id="&lt;Path&gt;" class="s19" d="m342 324.9c-1.3 10.5 0.2 10-0.3 17.1-0.4 5.7-10.3 22.2-18.1 30.1q-0.1 0-0.1 0c-1.8 1.9-3.6 3.3-5 4-7.5 3.3-24.2-5.8-33.7-17.4-2.8-3.5-5.4-10-7.5-17.5q-0.1-0.5-0.2-0.9c-4.8-17.5-7.4-40.5-6.9-48 0.7-10.8 33.8-20.3 48.3-19.4 19.3 1.3 25.3 16.4 27.2 30.3 0 0-2.5 11.1-3.7 21.7z"/>
						<path id="&lt;Path&gt;" class="s20" d="m342.7 548.3c0 0-12.1 3.6-16.3 13.6-4.1 10-6.1 29.2-6.1 29.2-0.3-3.3-10.5-5.5-18.3-10.3-7.8-4.8-18.7-11.6-34.6-12.6-15.9-1-22 1.5-36.1 8.3-14.2 6.9-26.3 10.8-29 15.3-0.4 0.7-0.7 1.7-1.1 2.9 0.9-13.7-1.3-18.5-1.3-21.2 0-2.7 10.4 2 24.7-1 14.2-3 8.2-21.3 6.4-27-1.3-4.2-5.6-9.2-8-11.7 4.9 4.9 20.6 20.5 26.7 24.3 7.3 4.6 48.8-19.3 54.4-22.4 5.7-3-1.3 11.2-2.4 20.9-1 9.7 17.6-3.4 25-7.6 7.5-4.1 11.9-5.6 11.9-5.6l0.1 0.1 3.9 4.7z"/>
						<path id="&lt;Path&gt;" class="s21" d="m275.7 319.3c0 0-5-7.5-13.6-6.6-8.6 0.9-6.5 13.9-5.1 19.9 1.4 6.1 12 8.8 15.9 8.9 4 0.1 5.5-6.2 5.5-6.2z"/>
						<path id="&lt;Path&gt;" class="s22" d="m375 502.8c-0.1 0.2-0.4 0.9-0.8 2q0 0-0.1 0.2c-2.5 5.5-9 19.5-16 26.2-8.5 8.1-30.9 16.9-32.2 19.9-0.6 1.2-1.1 4.2-1.7 8.4-0.9 5.7-2 13.6-3.6 21.5q0 0 0 0-0.3 1.4-0.6 2.9c-0.7 3 0.8 8.1 0.8 12.2 0 4.1-5.1 4.6-5.1 4.6 0 0 0.5 4.3-5.9 4.1 0 0-7.3 3.3-9.6-0.8l-1.3-4.6c0 0-1.5 2.8-3.8 2.9-2.7 0.1-3.7-2.2-3.7-2.2 0 0 0.5-6.2-2.6-15.8q0-0.2 0-0.4c0.3-2.4 6.8-15.7 9.6-24.8 2.3-7.6 5.2-12.3 6.7-13 1.5-0.6 11.1-5.6 22.3-17.4 11.2-11.7 11.7-24.2 11.7-24.2 0 0 20-14.9 35.9-8.3 0 0 0.5 5.3 0 6.6z"/>
						<path id="&lt;Path&gt;" class="s23" d="m196.7 479.5c0 0-8.9 4.7-22.4 8-13.5 3.3-27.7 3.7-29.4 4-1.8 0.4-6.2 8.8-6.4 11.3l-37.3 4c0 0-1.7-7.6 2-13.3 3.1-4.9 10.2-10.6 10.9-11.9 0.9-1.5-2.3-4.9-3.8-4.5-1.6 0.4-5.4 1.9-9.9 0q-0.7-0.3-1.2-0.7c-3.5-2.7-4.5-9.4-3.5-12.1 1-2.9 6.2-2.4 7.5-1.9 1.3 0.6 4.6 7 10.6 8.5q0.2 0.1 0.4 0.1c6.3 1.4 9.5-0.8 12.1-1.3 2.5-0.5 6.4 3 16.5 1.2 10.2-1.7 33.2-21.9 33.2-21.9 10.8-7.2 25.8 12.3 20.7 30.5z"/>
						<path id="&lt;Path&gt;" class="s9" d="m240.7 572.2c10-3.2 3.4-7.6 8.4-9.7 4.9-2 33.2-6 38-9.2 4.8-3.1-5.2 11.1-5.6 13-0.3 1.9 9.8 8.5 9.8 8.5 0 0-16.5-6.7-29-6.8-12.5-0.1-21.6 4.2-21.6 4.2z"/>
						<path id="&lt;Path&gt;" class="s24" d="m100.7 511.2c0 0 7.4 7 11.3 10.1 3.8 3 10.6-3.4 10.6-3.4 0 0 4.2 2.2 7.9-0.2 0 0 5.1 1.1 9.3-3.6 0 0 8.4 0.9 9.9-8z"/>
						<path id="&lt;Path&gt;" class="s25" d="m318.2 305.9c2.4 5.5-2.4 21.5-6.4 26.5-4.1 4.9-15.5-1.5-18-8.9-2.5-7.5 2.2-15.8 2.2-15.8 0 0 12.1-7 22.2-1.8z"/>
						<path id="&lt;Path&gt;" class="s26" d="m72.9 497c0 0 1.2 8.3 3.9 15.4 0 0 32.7-1.1 43.3-3l-0.8-17.2c0 0-27.4 1.9-46.4 4.8z"/>
						<path id="&lt;Path&gt;" class="s2" d="m155.1 505.5c0 0 2.4-6.6 1.6-12.7l-37.4-0.6 0.8 17.2z"/>
						<g id="&lt;Group&gt;">
							<path id="&lt;Path&gt;" class="s27" d="m77.1 496.4c0 0-1.3-3.1-1.1-3.7 0.1-0.5 8.5-1.8 8.8-1.8 0.3 0 1 4.4 1 4.4z"/>
						</g>
						<path id="&lt;Path&gt;" class="s28" d="m84.8 490.9c0 0 9.3-0.7 10-0.5 0.6 0.2 0.5 3.8 0.5 3.8l-9.5 1.1z"/>
						<path id="&lt;Path&gt;" class="s29" d="m347.2 288.2c0 5.8-2.5 9.6-2.5 9.6-0.7-6.3-5.3-13.3-5.3-13.3-1.5 6.3-4.3 6.7-4.3 1.4 0-5.3-2.3-8.3-2.3-8.3 0.4 5.3-1.1 14.9-4.1 13-3.1-1.9-12.9-11.7-21.4-11.5-8.5 0.1-19.1 2.8-22 9.3q0 0 0 0c-2.9 6.6 1.2 14.8 0.8 15.9-0.3 1-4.2 5.2-4.2 8.3 0 3.1 1.7 5.8 1.4 8.5-0.4 2.7-1.6 6.5-3 5-1.4-1.5-7.1-11.1-8.9-11-1.3-7.8-9.3-16.4-7.9-24.7q0-0.3 0.1-0.7 0.1-0.1 0.1-0.2c2-7.3 12.4-8.3 14.2-9.3 1.9-1 1.7-3.9 9.3-14 7.6-10.1 20.5-9.7 32.4-4.6 11.9 5.1 16 5.2 18.8 8.4 2.8 3.1 2.9 7.3 3 10.2 0.1 2.9 5.8 2.2 5.8 8z"/>
						<path id="&lt;Path&gt;" class="s30" d="m269.2 374.7c0 0-6.8 1.3-7.7 4.6-0.6 1.8-4.6 6.1-11 9.7-6.5 3.6-27.1 9-34 16.5-7 7.5-19.3 22.1-24.4 26.4-5.1 4.4-8.3 0.3-11.4 1.3-3 0.9-1.1 7.4-2.8 8.2-1.7 0.8-2.2-0.9-6 2-2.4 1.8-6.2 14-6.2 14 0 0 11.5-9.3 12.6-9.5 1-0.3 13.7 2.6 17.5 16 3.8 13.4-2.1 17-2.1 17l-8.8 3.5c0 0 6.3 5.5 9.3 6 3 0.5 8.7-6.9 8.7-6.9 0 0 2.1 0.9 3.6-1.7 1.5-2.7 5.9-13.7 14.8-17.7 0 0-4.4 26.3 1.1 51.8 0 0-3.6 1.3-4.4 2.2-0.8 0.9 0.9 2.5 0.9 2.5 0 0-4.9 0.9-6 2.4-1 1.5 4.5 5.4 4.5 5.4 0 0 14.1 13 29.5 29.5 15.4 16.4 38.9-3.3 48.5-13.4 9.6-10.1 21.8-12.7 24.4-14.6 2.7-1.8 2.7-2.7 0.8-4-1.9-1.3 0.8-1.9 1.3-6.6 0.6-4.6-2.3-2.1-5.1-4-2.8-1.9-8.2-28-2.7-42.6 0 0 14.6 10.8 21.1 24.2 0 0-1.6 2.6-1.5 3.7 0.1 1.2 1.5 0.5 2.7 1.8 1.2 1.3-1 3.2-1.2 4.8-0.3 1.7 3.2 1.9 3.2 1.9l0.7-3.7c0 0 13.6-12 35.9-9.2 0 0 0.3 4.3 0 5.8-0.3 1.5-0.6 2.3-0.6 2.3 0 0 8.4-4.7 10.6-9.8 2.2-5-7.7-9.1-7.7-11.4 0-2.3 0.2-3.7-2.6-4.4-2.9-0.6-23.2-24.4-27.8-36.2-4.5-11.7-4.4-17.4-14.8-25-10.6-7.7-30.5-21.4-30.9-25.4-0.3-3.9 1-3.4-0.3-7-1.4-3.6-2.8-4.3-2.8-4.3 0 0-1 3.2-1.8 4.7-0.7 1.5-6.3 12.6-19.7 10.1-13.3-2.4-8.2-18.1-8.2-18.1z"/>
						<path id="&lt;Path&gt;" class="s31" d="m195.9 737.6c-0.5 1.3-6.6 3.6-15.4 6q0 0-0.1 0c-0.9 0.1-15.5 2.1-20.6 3.5-5 1.3-11.9 2.8-12.7 3q-0.1 0-0.1 0-3.2 0.4-6.4 0.7c-25.2 2-37.6-1.3-39.2-2-1.6-0.6 0.1-5.8 0.1-5.8-2.4-3 21.8-27 36.6-34.5 14.8-7.4 40.2 11.2 46.2 25.1 0 0 7.4-1.2 11.5-2.7 0 0 1.2 3.9 0.1 6.7z"/>
						<path id="&lt;Path&gt;" class="s32" d="m296 307.7c0 0 5-7.6 10.2-8.9 5.9-1.5 11 0.2 11.9 0.9 0.8 0.7 0 3.6 0 3.6 0 0 2-2.6 2.3-3.5 0.3-0.9 0.3 4.2-2.2 6.1 0 0-7.6-1.8-14-0.6-5.2 0.9-8.2 2.4-8.2 2.4z"/>
						<path id="&lt;Path&gt;" class="s33" d="m333.6 311.8c0 0 1.7-5.9 3.5-7.3 0 0 0.5 0.1-0.4 2.6 0 0 0.9-2.5 4.4-4.1 4.1-1.9 6.1 0 6.1 0 0 0-1.1 4-2.7 6.1 0 0-3.1-0.9-6.6 0.3-2.5 0.8-4.3 2.4-4.3 2.4z"/>
						<path id="&lt;Path&gt;" class="s34" d="m313.3 323.8c-2 2.9-5.1 4.9-7.3 4.2-4.6-1.2-9.1-8.6-5.4-12.5 2.8-2.9 7.8-5 11.2-4 1.1 0.3 2 1 2.7 2 1.9 3.4 0.9 7.3-1.2 10.3z"/>
						<path id="&lt;Path&gt;" class="s34" d="m340.3 325.2q-0.5 1.2-1.2 2.3c-2.3 3.3-5.8 4.9-7.3 1.2-1.7-4.6-0.4-9.5 2-11.2 1.4-1 2.6-1.5 3.6-1.6 4.2-0.7 4.5 5.5 2.9 9.3z"/>
						<path id="&lt;Path&gt;" class="s2" d="m315.4 316c0 0 1.4-2.7 0.1-4.7-1.6-2.5-12.6-2.5-16 6.2 0 0 2.5-4.7 8.6-5.6 5.8-0.9 7.2 1.9 7.3 4.1z"/>
						<path id="&lt;Path&gt;" class="s2" d="m331.5 321.2c0 0 1.2-5 6.1-6.5 5.9-1.8 3.5 4.6 3.5 4.6 0 0 0-3.8-3.6-3.1-4.3 0.9-6 5-6 5z"/>
						<g id="&lt;Group&gt;">
							<path id="&lt;Path&gt;" class="s35" d="m313.3 323.8q-0.5 0.2-1.1 0.2c-2.5 0-4.6-2.8-4.6-6.3 0-3.2 1.8-5.9 4.2-6.2 1.1 0.3 2 1 2.7 2 1.9 3.4 0.9 7.3-1.2 10.3z"/>
						</g>
						<g id="&lt;Group&gt;">
							<path id="&lt;Path&gt;" class="s35" d="m340.3 325.2q-0.5 1.2-1.2 2.3c-1.9 0-3.4-2.8-3.4-6.3 0-2.3 0.6-4.2 1.7-5.3 4.2-0.7 4.5 5.5 2.9 9.3z"/>
						</g>
						<path id="&lt;Path&gt;" class="s9" d="m315.2 317.5c0 2.2-1 4-2.3 4-1.3 0-2.3-1.8-2.3-4 0-2.1 1-3.9 2.3-3.9 1.3 0 2.3 1.8 2.3 3.9z"/>
						<path id="&lt;Path&gt;" class="s9" d="m341.1 321.3c-0.1 2.2-1 3.9-2 3.9-1-0.1-1.7-1.9-1.6-4.1 0.1-2.1 1-3.8 2-3.8 1 0.1 1.8 1.9 1.6 4z"/>
						<path id="&lt;Path&gt;" class="s36" d="m308.5 316.8c-1.5-0.9-2.2 0.8-1.6 2 0.7 1.3 2.1-0.4 2.3-1.1 0.2-0.6-0.7-0.9-0.7-0.9z"/>
						<path id="&lt;Path&gt;" class="s36" d="m336.5 321.2c-0.3-1.1-1.6-0.3-1.5 0.9 0.1 1.2 2 0.9 1.5-0.9z"/>
						<path id="&lt;Path&gt;" class="s37" d="m299.4 320.4c0 0 1.4 4.9 5.5 6.6 4.2 1.7 6.9-1.3 6.9-1.3 0 0-1.2 2.4-2.2 3.3-1 1-8.1-0.6-10.2-8.6z"/>
						<path id="&lt;Path&gt;" class="s37" d="m331.2 326.4c0 0 0.6 3.2 2.2 3.9 2 0.8 4.5-1.3 4.5-1.3 0 0-1.5 2.1-3.6 2.3-2.1 0.3-2.7-3.6-3.1-4.9z"/>
						<path id="&lt;Path&gt;" class="s38" d="m318.5 343.3c0 0 3.5-0.8 5.2 0 1.7 0.7-0.6 1.5-0.6 1.5 0 0 1.6 1.5 3.8 1.6 2.3 0.1 4.2-1.7 5.5-2 1.2-0.3 4-2.1 4.1-4.1 0-2-1.6-9.4-7.8-10.7-6.2-1.2-13.4 5.3-14.6 9.4-1.1 4.1 4.4 4.3 4.4 4.3z"/>
						<path id="&lt;Path&gt;" class="s39" d="m319.8 343c0 0 3.1 1.2 3.6 1.7 0.5 0.4 1.8-0.5 1.8-1.6 0.1-1.1-5.4-0.1-5.4-0.1z"/>
						<path id="&lt;Path&gt;" class="s39" d="m330.7 345.2c0 0 1.9-1.3 2.8-2.4 1-1.2 2.5 1.4-2.8 2.4z"/>
						<path id="&lt;Path&gt;" class="s40" d="m307.4 345.2c0 0 0.5 3.6 6.6 6.9 6 3.2 11.9 2.6 11.9 2.6 0 0-3.4 1.7-6.8 3.9-3.3 2.2-5.1 0.9-5.1 0.9-3.4-1.2-5-6.6-6.6-14.3z"/>
						<path id="&lt;Path&gt;" class="s41" d="m309.8 350.3c-0.2 0.2 1.3 4.8 4.2 7.5 2.8 2.6 9.2-2.4 9.2-2.4 0 0-8.4-0.5-13.4-5.1z"/>
						<path id="&lt;Path&gt;" class="s36" d="m310.4 350.8c0 0 1.1 3.7 4.4 5.8 3.2 2.1 8.4-1.2 8.4-1.2 0 0-8.3-0.3-12.8-4.6z"/>
						<path id="&lt;Path&gt;" class="s42" d="m311.3 342.1c0 0-4.4 1.1-5.1 6.1 0 0-2.7-5.3 5.1-6.1z"/>
						<path id="&lt;Path&gt;" class="s43" d="m314.6 337.7c-0.5 3 5.9 3.7 10.6 3.8 4.7 0 9.2 0.3 9.8 0.6 0.5 0.2 1-0.3 1-0.3 0 0-2.8 6-9.4 7.8-6.5 1.7-11.9-5.8-13.1-7.5-1.2-1.8 1.1-4.4 1.1-4.4z"/>
						<path id="&lt;Path&gt;" class="s44" d="m276.2 327.5c0 0-7.6-9.1-13.4-9-5.8 0.2-4.3 10.7-4.2 13.4 0.1 2.6 2 3.5 2 3.5 0 0-2.3-4.1-1.5-9.2 0.7-5.1 4.2-6.3 6.6-5.4 2.3 0.9 0.2 5.1-0.3 8.1-0.4 3.1 2.7 4.9 6.8 4.3 4.1-0.6 0.5-4.1 0.6-5.6 0.1-1.6 3.4-0.1 3.4-0.1z"/>
						<path id="&lt;Path&gt;" class="s9" d="m270.1 321.7c-3.1-1.6-4.4 6-3.9 8.5 0.5 2.6 4.6 3.8 6.7 2.8 2.2-0.9-0.7-5-0.5-6 0.2-1.1 3.1-0.3 3.1-0.3 0 0-4-4.2-5.4-5z"/>
						<path id="&lt;Path&gt;" class="s45" d="m333.6 311.8c-2.7 3.4-3.3 9.6-2.9 13.5 0.5 3.9 3.8 8.6 6.4 14.2 1 2 3.7-6.5 4.9-15.2 1.3-8.7 2.5-15.2 2.5-15.2 0 0-5.4-4.1-10.9 2.7z"/>
						<path id="&lt;Path&gt;" class="s9" d="m276.2 345.2c1.6-2.3 0.8 19.6 7.1 33.1 6.3 13.6 15.1 0.5 15.1 0.5l1.1-7.5c0 0-12.1-9.5-16.2-15.7-4.1-6.3-6.2-15.3-6.2-15.3z"/>
						<path id="&lt;Path&gt;" class="s46" d="m323.5 372.1c-1.8 1.9-3.6 3.3-5 4-7.5 3.3-24.2-5.8-33.7-17.4-2.8-3.5-5.4-10-7.5-17.5 1.6 5.1 7.2 19.5 22.5 27.6 15.6 8.3 23.1 3.8 23.7 3.3z"/>
						<path id="&lt;Path&gt;" class="s9" d="m328.7 290.6c0 0-2.9-11.1-6.7-17.7-3.8-6.7-19.9 0.6-27.1 4.5-7.2 3.9-8.3 9-8.3 9 0 0 5.5-7.2 19-6 13.5 1.2 17.4 8.9 23.1 10.2z"/>
						<path id="&lt;Path&gt;" class="s47" d="m332.8 277.6c0 0-1.6-6.3-7-9.9 0 0 8.2 0.3 12.6 4.5 4.4 4.2-1.2 16.8-2.3 17.3-1.1 0.4-3.1-1.7-3.2-5.6 0-4-0.1-6.3-0.1-6.3z"/>
						<path id="&lt;Path&gt;" class="s9" d="m339.4 284.6c0 0 1.2-3 1.3-3.7 0.1-0.8 3.2 4.5 4.8 8.8 1.5 4.3-0.9 8-0.9 8 0 0-4.1-5.5-4.8-7.8-0.8-2.2-0.4-5.3-0.4-5.3z"/>
						<path id="&lt;Path&gt;" class="s48" d="m285.3 287.4c3.1-5.6 11.1-8.7 19.3-6.7 8.1 2-2.4 4-9.7 4.3-7.2 0.4-9.6 2.4-9.6 2.4z"/>
						<path id="&lt;Path&gt;" class="s9" d="m277.9 280.2c0.4 2.5 6 1.8 8.7 1.7 2.7-0.2 8.6-7.3 9.8-12.6 1.2-5.3-5.1-3.4-9.8 0-4.8 3.3-6.4 9.6-8.7 10.9z"/>
						<path id="&lt;Path&gt;" class="s9" d="m286.1 304.3c-0.3 1-4.2 5.2-4.2 8.3 0 3.1 1.7 5.8 1.4 8.5-0.4 2.7-1.6 6.5-3 5-1.4-1.5-7.1-11.1-8.9-11-1.3-7.8-9.3-16.4-7.9-24.7q0-0.3 0.1-0.7c-1.1 5.9 3.9 11.6 6.5 14.3 2.6 2.6 1.2-7.2 1.9-10.8 0 0-0.2 5.3 1 8.5 1.2 3.1 6.7 2.2 8.3-4.7 1.6-6.6 3.7-8.4 4-8.6-2.9 6.6 1.2 14.8 0.8 15.9z"/>
						<path id="&lt;Path&gt;" class="s49" d="m269.2 374.7c0 0-0.5-0.1-2.7 3.5-2.2 3.6-0.6 14.3 5.2 18.1 9.1 6.1 19.5-1.3 24.3-6.1 3.9-3.8 1.9-8.6 1.9-8.6 0 0-4.1 11.1-12.6 13.4-8.4 2.3-17.1-5.9-16.1-20.3z"/>
						<path id="&lt;Path&gt;" class="s50" d="m301.2 389.6c0 0-8.8 16.6-22.7 19.8-13.9 3.3-17.2-16.4-17.2-16.4 0 0 0.6 10.5 9.6 18.6 6.4 5.7 23.5-5.3 25.7-11.4 2.3-6.2 6.7-4.9 6.7-4.9 0 0-1.8-1.9-2.1-3.2-0.2-1.2 0-2.5 0-2.5z"/>
						<path id="&lt;Path&gt;" class="s51" d="m184.9 484.4c0 0 5.8 3.9 8.8 3.5 3-0.3 3.3-15.2 3.3-15.2 0 0-1.3 5.6-2.9 8-1.7 2.3-9.2 3.7-9.2 3.7z"/>
						<path id="&lt;Path&gt;" class="s52" d="m194.2 490.4c0 0 5.2-4.3 7.1-14.9 1.9-10.6-5.2-25.3-9.1-29.7-3.9-4.5-14.3-4.4-14.3-4.4 0 0 0.7-0.8 0.8-2.1 0 0 1 1.4 1.8 1.7 0.7 0.3 8.1 0.3 13.4 3.7 5.4 3.5 9.3 22.3 9.6 29.7 0.4 7.4-0.6 9.1-0.6 9.1 0 0-6.2 7.9-8.7 6.9z"/>
						<path id="&lt;Path&gt;" class="s53" d="m221.3 464.1c0 0 3.4-15.7 1.3-30.9-2.1-15.3-2.5-18.5-2.5-18.5 0 0-4.5 14.2-5.3 28.6-0.7 14.4 2.1 18.2 3.5 19.3 1.3 1.2 0.7 2.8 0.7 2.8z"/>
						<path id="&lt;Path&gt;" class="s54" d="m314.1 472.7c0 0 8.3-14.6 18-17.1 9.7-2.5 12.7 1.5 12.7 1.5 0 0-18.9 4.8-24.2 11.4 0 0 15.1 4.2 20.4 10.6 0 0-11.3 3-15.7 1.2-4.4-1.8-11.2-7.6-11.2-7.6z"/>
						<path id="&lt;Path&gt;" class="s55" d="m377.3 483.1c0 0-10.5-4.3-20.2-2.2-9.8 2.1-16.1 9.6-16.1 9.6 0 0 6.9-7 17.1-7.9 10.2-0.9 19.2 1.6 19.2 1.6z"/>
						<path id="&lt;Path&gt;" class="s49" d="m336.4 502.4c0 0 10.1-10.2 19.5-13.8 9.5-3.5 15.8-1.7 15.8-1.7 0 0-23 3.6-30.7 12.3 0 0 17-8.5 30.7-9.2 13.8-0.6 12.8 3.9 11.8 7-1 3-9.1 7.3-9.1 7.3 0 0 3-5.8-2.5-6.9-11.4-2.4-28.7 4.7-30.9 6.9-2.2 2.2-2.6 4.8-2.6 4.8 0 0-3.5-0.4-3.2-1.6 0.2-1.1 1.7-3.3 1.7-4 0-0.6-0.5-1.1-0.5-1.1z"/>
						<path id="&lt;Path&gt;" class="s56" d="m215.3 521.6c7.4-1.6 25.2 31.6 46.5 33.2 21.4 1.7 31.9-14.6 40.3-20.8 8.5-6.2 17.8-8.8 17.8-8.8 0 0 0.3-0.8 0.9-2.1 0 0-13.7 5.6-20.7 10.3-6.9 4.6-26.5 20.2-44.1 17.9-17.5-2.3-24.5-21.4-37.1-30.7z"/>
						<path id="&lt;Path&gt;" class="s57" d="m221.2 516.4c0 0 16.7 12.8 36.2 22.5 19.5 9.7 44.3-11.3 44.3-11.3 0 0-29 12.4-45.9 6.6-16.9-5.8-33.4-18.3-33.4-18.3z"/>
						<path id="&lt;Path&gt;" class="s58" d="m284.4 437.8c0 0 5.2 39.4 15.7 58.6 10.4 19.1 12.7 17.1 13.3 19.5 0.5 2.4-13.3 10.6-17.7 10.6-4.3 0 7.7-6.4 7.6-12.4-0.2-6-16.1-30.1-18.9-76.3z"/>
						<path id="&lt;Path&gt;" class="s59" d="m237.4 437.8c0 0-14.2 47.8-12.7 60 1.5 12.2 3.6 16.3 3.6 16.3 0 0 7.8-71 9.1-76.3z"/>
						<path id="&lt;Path&gt;" class="s49" d="m167.5 456c0 0 3.1-10.3 7.7-11.8 4.7-1.4 17 7.3 20.4 19.3 0 0-7.9-12.4-15.1-13.6-7.1-1.1-13 6.1-13 6.1z"/>
						<path id="&lt;Path&gt;" class="s49" d="m314.1 472.7c0 0 5.7-9.7 11.2-13.5 5.6-3.8-3.6 6.8-4.7 9.3-1.2 2.5 0.6 4.2 0.6 6.9 0.1 2.7-7.1-2.7-7.1-2.7z"/>
						<path id="&lt;Path&gt;" class="s60" d="m310 603.8c0 0-1.5-4.2-0.8-5.8 0.6-1.6 3.7 1.6 4.9 4.3 0 0-2.4 2.5-4.1 1.5z"/>
						<path id="&lt;Path&gt;" class="s49" d="m221.3 464.1c0 0 2.8-12.8 2-18.9-0.9-6.1-4.3-8.2-4.3-8.2 0 0-3.6 14.8-2.6 19.7 1 4.9 4.9 7.4 4.9 7.4z"/>
						<path id="&lt;Path&gt;" class="s61" d="m141.1 492.5l-21.8-0.3-16.1 1.3c3.3-5 10.2-10.6 10.9-11.9 0.9-1.5-2.3-4.9-3.8-4.5-1.6 0.4-5.4 1.9-9.9 0q-0.7-0.3-1.2-0.7v-0.1c3.2 2.1 10.7 0.4 13.4-1.5 1.8-1.2 1.6-2.8 1.2-3.9q0.2 0.1 0.4 0.1c6.3 1.4 9.5-0.8 12.1-1.3 0.3 0.5-7.6 9.2-7.6 14.7 0 5.5 6.7 6 13 6.4 6.2 0.5 9.4 1.7 9.4 1.7z"/>
						<path id="&lt;Path&gt;" class="s62" d="m122.6 517.9c0 0 2.6-3.3 3.2-4.5 0.6-1.3-3.3-3-5.1-3.3-1.9-0.3-6.4 2.3-6.4 2.3l-2.9-2 8.7-1 8.3-1c0 0 0 3.1-0.3 5.2-0.4 2.1-5.5 4.3-5.5 4.3z"/>
						<path id="&lt;Path&gt;" class="s62" d="m130.5 517.7c0 0 5.3-2.7 7.9-5.7 2.6-2.9 1.6-4.8 1.6-4.8l1.1-0.1c0 0 0.9 5.7-10.6 10.6z"/>
						<path id="&lt;Path&gt;" class="s62" d="m139.8 514.1c0 0 5.8-3.9 7.3-7.8l-1.8 0.3c0 0-1.7 3.4-5.5 7.5z"/>
						<path id="&lt;Path&gt;" class="s9" d="m146.5 491.4c0 0 26.5-2.9 39.4-8.9 12.8-6 9.9-18.6 9.9-18.6 0 0 4.3 10.4-2.6 19.2 0 0-2.4 1.2-8.3 1.3 0 0-9.2 4.5-38.4 7z"/>
						<path id="&lt;Path&gt;" class="s9" d="m309.8 604.8c-0.7-2.1-5.5-14.5-5.7-16-0.1-1.4 2.4-8.2 2.9-10.7 0 0-1.5 7.5-1.8 10.7-0.2 1.8 3.8 11.3 4.6 16z"/>
						<path id="&lt;Path&gt;" class="s9" d="m315.7 600.7c0 0-1.9-0.2-2.5-0.6-0.5-0.4 0-3.9-1.3-8.7 0 0 0.7-8.2 2.3-11.8 0 0-2.3 5.5-3.2 10.9 0 0 1.8 6.7 1.3 10.2-0.4 3.6 3.4 0 3.4 0z"/>
						<path id="&lt;Path&gt;" class="s9" d="m298.9 599.4c-0.6-3.1-2.2-9.2-2.5-10.4-0.3-1.2 2.6-6.9 3.5-13.5 0 0-2.7 9.5-4.4 12-0.7 1 2.9 9.1 3.4 11.9z"/>
						<path id="&lt;Path&gt;" class="s46" d="m374.1 505c-2.5 5.5-9 19.5-16 26.2-8.5 8.1-30.9 16.9-32.2 19.9-0.6 1.2-1.1 4.2-1.7 8.4 0 0 0.5-4.7 0.5-8.1 0-3.5 16.3-7.1 31.5-22.7 12.1-12.5 17-22 17.9-23.7z"/>
						<path id="&lt;Path&gt;" class="s9" d="m176.7 573.5c0 0-5.1 38.4-0.3 75.8 4.8 37.4 16 55.8 16 55.8 0 0 1.5-44.2-1.7-69.4-3.1-25.3-14-62.2-14-62.2z"/>
						<path id="&lt;Path&gt;" class="s9" d="m138.1 690.5c0 0 18.6-45.7 23.7-67 5-21.2 3.9-50 3.9-50 0 0-4.4 17.1-10.3 47.9-6 30.7-17.3 69.1-17.3 69.1z"/>
						<path id="&lt;Path&gt;" class="s9" d="m353.3 575.5c0 0-3.8 65-6.1 88.2-2.3 23.3-23 46.8-23 46.8 0 0 1.1-31.1 6.5-58.4 5.4-27.3 22.6-76.6 22.6-76.6z"/>
						<path id="&lt;Path&gt;" class="s9" d="m360.1 579.6c0 0-1.8 41.2-0.5 59.7 1.3 18.6 17.1 49.6 17.1 49.6 0 0-6.4-27.4-11.8-56.9-5.8-31.1-4.8-52.4-4.8-52.4z"/>
						<path id="&lt;Path&gt;" class="s18" d="m140.7 689.2c-1.3 0.5 13.3 10.4 13.9 10.8 0.7 0.4 0.2-3.1 0.4-4.2 0.1-1.1 0.6 0 2.2-1.1 1.6-1.1 13.4 4.2 17.2 6.9 3.7 2.6 5.2 6.6 5.2 6.6l0.4 2.4c0 0 12.3 1.7 12.7 1.4 0.5-0.2-7.7-13.2-18.7-19-11-5.9-23.5-7.6-33.3-3.8z"/>
						<path id="&lt;Path&gt;" class="s18" d="m324.2 715.7c0 0 22.4-31.1 52.5-26.8 0 0-7.8 8.6-15.4 12.7 0 0 0.8-1.6-0.7-1.4-1.5 0.2-1.3-1.6-1.5-3.5-0.2-2-10.1-0.8-16.3 4.4-6.1 5.2-9.1 11.1-9.1 11.1l-0.2 0.9z"/>
						<path id="&lt;Path&gt;" class="s63" d="m358.3 572.9c-3.1-2.5-14.1 2.1-24.3 1.9-10.3-0.3-6.1-11.9 0-18.7 6-6.8 9.7-3.2 14.4 1.8 4.6 4.9 9.3 13.6 9.9 15z"/>
						<path id="&lt;Path&gt;" class="s63" d="m170.1 566.7c-1 2 7.9-0.9 20.7 3.3 12.9 4.2 16.1-11.9 16.8-20.7 0.8-8.9-24.7 6.2-29.3 10.7-4.5 4.4-8.2 6.7-8.2 6.7z"/>
						<path id="&lt;Path&gt;" class="s9" d="m165.7 573.5c0.9-2.8 2 3.2 2.9 10.2 1 7-5.5 12.3-5.5 12.3 0 0 0.6-16 2.6-22.5z"/>
						<path id="&lt;Path&gt;" class="s64" d="m142 685.7c-2.4-0.3 14.2-42.8 18.9-53.7 4.7-10.9 13.4 29.7 20.6 47.6 7.2 18 0.5 12.9-11.9 8.6-12.4-4.3-27.6-2.5-27.6-2.5z"/>
						<path id="&lt;Path&gt;" class="s64" d="m338.8 697.7c-4.4-1.1 9.3-31.6 14.5-46.4 5.2-14.7 18.2 34.2 20.8 35.9 2.6 1.7-11.1-2.7-35.3 10.5z"/>
						<path id="&lt;Path&gt;" class="s2" d="m88.5 507.1c-1.4-2.2 3.8-6.4 9.6-6.3 5.9 0 5 7.1-0.8 8.6-5.9 1.4-8.8-2.3-8.8-2.3z"/>
						<path id="&lt;Path&gt;" class="s65" d="m90.1 506c-0.8-2.3 7.7-4.1 9.5-1.9 1.9 2.3-8 6.4-9.5 1.9z"/>
						<path id="&lt;Path&gt;" class="s36" d="m95.2 503.9c-1.1 0.9 1.9 1.4 2.7 1 0.9-0.5-1.4-2.2-2.7-1z"/>
						<path id="&lt;Path&gt;" class="s66" d="m95.7 464.3c2.9-2.8 7.5 3.6 11.4 8.7 3.8 5.2-3.4 5.4-6.7 4.1-3.3-1.3-5.7-7.3-4.7-12.8z"/>
						<path id="&lt;Path&gt;" class="s67" d="m124.9 514.1c0 0-2.4-0.8-3.5-0.9-1-0.1-3.5 5.6-3 6.1 0.9 1.1 5.8-1.5 6.5-5.2z"/>
						<path id="&lt;Path&gt;" class="s67" d="m139.1 510.4c0 0-3 0.3-5.6 0-2.5-0.3-2.5 4.7-1.7 5.4 0.8 0.7 7.3-5.4 7.3-5.4z"/>
						<path id="&lt;Path&gt;" class="s67" d="m141.1 507.7c0.5 1 3.4 0.3 3.4 0.3 0 0-1.2 3.3-3.5 4.1-2.3 0.9 0.1-4.4 0.1-4.4z"/>
						<path id="&lt;Path&gt;" class="s67" d="m148.9 507.7c-0.7 0.4-2.2 0.3-2.2 0.3 0 0-1.4 2.3-1.4 3.6 0 1.3 3.6-1.6 3.6-3.9z"/>
						<path id="&lt;Path&gt;" class="s60" d="m292 599.9c0 0-1.1-4.8 0.8-5.7 2-0.9 4.5 4.7 4.8 5.6 0.4 0.8-4.6 3.1-5.6 0.1z"/>
						<path id="&lt;Path&gt;" class="s60" d="m300.7 604c0 0-1.8-6 1.2-6.8 3-0.7 5.4 6.8 5.4 6.8 0 0-2.8 3.3-6.6 0z"/>
						<path id="&lt;Path&gt;" class="s60" d="m313.4 599.1c0 0-0.8-4.5 0.5-5.7 1.3-1.3 3.8 2.4 4.4 4.6 0.7 2.2-4.9 1.1-4.9 1.1z"/>
						<path id="&lt;Path&gt;" class="s68" d="m101.5 743c0 0 40.2 7.4 82.8-9.4 0 0-3.7 1.1-8.9 2.6-4.2 1.3-23.7 6.3-41.1 5.3-17.5-1-18.3-4.3-23.5-3.6-5.3 0.6-9.3 5.1-9.3 5.1z"/>
						<path id="&lt;Path&gt;" class="s68" d="m330 732.7c0 0 22.4 8.2 46.7 11.7 24.2 3.6 35.5-3.4 35.5-3.4 0 0 0.6 0.9 0.3 2 0 0-13.6 4.2-38.1 2.4-24.5-1.7-44.7-11.8-44.7-11.8z"/>
						<path id="&lt;Path&gt;" class="s64" d="m109 736c-5.6-2.6 23.9-25.2 32.7-26.9 8.9-1.8 28.9 10 33.6 16.2 4.7 6.2-36.1 12.8-47.5 13.1-11.4 0.2-18.8-2.4-18.8-2.4z"/>
						<path id="&lt;Path&gt;" class="s64" d="m341.2 721.8c-5.5 8.8 48.5 16.5 61.2 17.3 12.7 0.7-19.9-28.9-28-30.6-8.2-1.7-27.3 4-33.2 13.3z"/>
						<path id="&lt;Path&gt;" class="s68" d="m180.5 743.6q0 0-0.1 0c-0.9 0.1-15.5 2.1-20.6 3.5-5 1.3-11.9 2.8-12.7 3 2-0.4 2.9-7.1 4-7.6 1.2-0.5 18.2-3.8 21.1-4.7 2.9-1 8.3 5.8 8.3 5.8z"/>
						<path id="&lt;Path&gt;" class="s68" d="m332.1 743.2q0 0 0.5 0.1-0.3 0-0.5-0.1z"/>
						<path id="&lt;Path&gt;" class="s68" d="m374.2 750.8c0 0-14.4-2.6-22.3-4.4-4.4-1-16.3-2.7-19.2-3.1 3 0.1 5.5-4.2 8.1-5.2 2.8-1 25.7 5.9 28.8 6.5 3.1 0.7 4.6 6.2 4.6 6.2z"/>
						<path id="&lt;Path&gt;" class="s69" d="m188.7 433.8c7.6 0.6 18.1-6.7 23.6-14.7 5.6-8 4.8-14.2 4.8-14.2 0 0-5.3 5-13 14.4-7.7 9.5-15.4 14.5-15.4 14.5z"/>
						<path id="&lt;Path&gt;" class="s69" d="m341 427.1c-2.8-4.1-14 20.2-13.9 25.5 0.1 5.2 12.8 3.3 22 5.8 9.3 2.5 11.6 5.5 11.6 5.5 0 0-8.7-10.2-12.6-18.6-3.8-8.4-7.1-18.2-7.1-18.2z"/>
						<path id="&lt;Path&gt;" class="s70" d="m318 515.9c0 0-2.9 0.8-8.7-10.3-5.8-11.1 4.8-32.9 4.8-32.9 0 0-4.1 10.8-1.3 30.6 1.9 13.5 5.2 12.6 5.2 12.6z"/>
						<path id="&lt;Path&gt;" class="s49" d="m218.9 520.6c0 0 6.2 4.7 11.1 11.3 4.8 6.6 8.3 9.6 8.3 9.6 0 0-8-6.9-11.8-12-3.8-5-8.6-7.6-9-7.9-0.4-0.3 1.4-1 1.4-1z"/>
						<path id="&lt;Path&gt;" class="s49" d="m319.9 525.2c0 0 2.1-3.7 2-5.9-0.1-2.2-6.7-0.6-13.9 7.2-7.2 7.7-10.9 11.8-10.9 11.8 0 0 17.1-12.7 22.8-13.1z"/>
						<path id="&lt;Path&gt;" class="s71" d="m315.7 600.7c0 0 0.5 4.3-5.9 4.1 0 0-7.3 3.3-9.6-0.8l-1.3-4.6c0 0-1.5 2.8-3.8 2.9-2.7 0.1-3.7-2.2-3.7-2.2 0 0 0.5-6.2-2.6-15.8q0-0.2 0-0.4c1.1 4.2 7.2 2.6 7.2 2.6l0.4 2.5c0 0 3.4 1.5 5.3 1.3 2-0.2 2.7-3.2 2.7-3.2l0.8 2.2c0 0 3.6 1.6 6 0.1 0 0 3.7 0.6 5.3-1.3 1.5-1.7 3.8-6.5 4.1-7.1q-0.3 1.4-0.6 2.9c-0.7 3 0.8 8.1 0.8 12.2 0 4.1-5.1 4.6-5.1 4.6z"/>
						<path id="&lt;Path&gt;" class="s49" d="m215.6 527c0 0 9.1 5 18.2 15.8 9 10.7 19.9 18.8 31.1 18.5 11.1-0.2 24.7-12.8 29.9-18.1 5.2-5.3 17.4-10 17.4-10 0 0-11 5-15.1 11-4.1 6-24.4 22.4-38.6 22.2-14.2-0.3-19.8-13.2-27.1-23.3-7.3-10-15.8-16.1-15.8-16.1z"/>
						<path id="&lt;Path&gt;" class="s49" d="m338.7 506.7c0 0-1.5-1.2 0-4 1.4-2.8 16-7.1 25.9-6.7 0 0-23.1 5.8-25.9 10.7z"/>
						<path id="&lt;Path&gt;" class="s49" d="m276.4 540.6c-3 0.5 9.7-6.6 14.5-9.1 4.8-2.5 13-5 13-5 0 0-8.5 6.6-15.1 9.5-6.6 2.9-12.4 4.6-12.4 4.6z"/>
						<path id="&lt;Path&gt;" class="s72" d="m238.8 529.4c-10.1-6.3 2.9 15.1 14.1 19.5 11.1 4.4 26.5-2.6 35.9-10 9.4-7.4-3.6 2.2-20.1 2.4-16.6 0.3-24.2-8.3-29.9-11.9z"/>
						<path id="&lt;Path&gt;" class="s73" d="m222.8 453.8c0.4 14.6 8.5 15.6 30.7 11.6 22.2-4 31.3 8.8 34.3 14.1 3.1 5.4 5.5 0.4 4.9-1.6-0.5-2.1 4.9 1.8 11.2 1.4 3.7-0.2 10.2-6.6 10.2-6.6 0 0-5.2 12.4-2.2 26.8 2.9 14.4 3.4 14.6 6.1 16.4 0 0-7.4 3.6-14.8 8-7.5 4.4-31.9 8.8-50 4.4-20.5-5.1-30.1-9.9-32.5-22.2-2.3-12.7 0-44.9 2.1-52.3z"/>
						<path id="&lt;Path&gt;" class="s72" d="m356.1 574.8c-0.8 0.2-4.6 39.9-5.7 51-1 11.1 6.4 12.6 7.9 14.4 1.6 1.9 0-36.6 0.9-50.3 0.9-13.6-3.1-15.1-3.1-15.1z"/>
						<path id="&lt;Path&gt;" class="s72" d="m168.7 570.7c-1.2 0.5 1.3 18.6-4.4 46.7-1.8 8.4 5.3 18.2 5.7 20.1 0.5 1.9 6.2-48.1 5.8-55.5-0.4-7.4-7.1-11.3-7.1-11.3z"/>
						<path id="&lt;Path&gt;" class="s20" d="m320 583.9c7.8-14.9 11.3-3.9 7.8 15.5-3.6 19.3-7.8 37-7.8 37 0 0-0.6-25.5 0.8-37.6 1.3-12.1-0.8-14.9-0.8-14.9z"/>
						<path id="&lt;Path&gt;" class="s68" d="m130.8 713c0 0 29.5-3.3 44.6 23.2 0 0-12.7-16.2-28.3-19.9-15.6-3.8-19.6-1-19.6-1z"/>
						<path id="&lt;Path&gt;" class="s68" d="m338.8 736.2c0 0 16.8-26.5 44.2-23.4l1.4 1c0 0-23.2-5.5-45.6 22.4z"/>
						<path id="&lt;Path&gt;" class="s74" d="m206.5 481.8c0 0 6.7-16.5 0.8-34.3-6-17.8-18.6-13.7-18.6-13.7 0 0 12.6-7.9 20.6-20.6 0 0 7.1-3.3 11.9 11 4.8 14.2 0.1 39.9 0.1 39.9 0 0-6.8 2.7-14.8 17.7z"/>
						<path id="&lt;Path&gt;" class="s49" d="m178.8 437.4c-0.5 3.3 6.3-0.4 10.8 2.3 4.6 2.7 7.5 13 7.5 13 0 0-2.4-6.3-7.6-8.6-5.2-2.4-9.1-2.9-10.7-2.7-1.6 0.2-0.1-0.7-0.1-2.1 0-1.4 0.1-1.9 0.1-1.9z"/>
						<path id="&lt;Path&gt;" class="s49" d="m377.1 480.3c-1 1.5-8.9 2.9-13.9-1.3-5-4.2-14.1 6-14.1 6 0 0 17.1-6.7 28.2-0.8 0 0-0.1-1.6 0-2.5 0.1-1-0.2-1.4-0.2-1.4z"/>
						<path id="&lt;Path&gt;" class="s72" d="m327.6 711.6c0 0 13.4-20.3 26.7-27.9 13.3-7.6 22.4 5.2 22.4 5.2 0 0-5.8-4.3-21.9 1.8-16 6.1-27.2 20.9-27.2 20.9z"/>
						<path id="&lt;Path&gt;" class="s72" d="m139.4 689.6c0 0-1.1-7.6 15.8-8.3 16.8-0.8 33.1 19.6 37.5 29.8 0 0-10.7-20.4-30.2-22.9-19.4-2.5-23.1 1.4-23.1 1.4z"/>
						<path id="&lt;Path&gt;" class="s75" d="m279.8 339.7c1.8-10 8.7-8.6 18.2 3.3 9.5 11.8 5.8 20.9 4.3 22.5-1.5 1.6-25.2-10.6-22.5-25.8z"/>
						<path id="&lt;Path&gt;" class="s76" d="m267.1 286.2c-4.2 4 9.3 6.9 11.9 6.1 2.7-0.8 4.7-4.9 5.1-6.1 0.3-1.3-10.3-6.6-17 0z"/>
						<path id="&lt;Path&gt;" class="s76" d="m305.3 259.3c-6.6 0.4 2.6 8.7 7.6 9.9 5.1 1.1 7.6 0.4 10.3 3.1 2.8 2.6-3-13.9-17.9-13z"/>
						<path id="&lt;Path&gt;" class="s77" d="m335.7 335.8c-1.4-4.5-6-5.4-10.5-4.4-4.4 0.9 0.4-8 2.3-12.1 1.9-4.2 2.8 5 4 8.9 1.1 3.8 2.7 3.5 4.2 7.6z"/>
						<path id="&lt;Path&gt;" class="s75" d="m298.1 304c-3.6 4.8-5.6 9.1-7.6 11.8-2 2.7-7.6-0.3-7.2-4 0.4-3.7 1.4-6.2 2-11 0.7-4.8 12.8 3.2 12.8 3.2z"/>
						<path id="&lt;Path&gt;" class="s78" d="m275.2 526.2c8.4-4.8 9.7-25.9 9.2-33.4-0.6-7.4 1.4 12-8.2 23.1-9.6 11.1-16.1 9.8-14.9 10.3 1.3 0.6 11 1.7 13.9 0z"/>
						<path id="&lt;Path&gt;" class="s75" d="m303.7 549.5c4.5-3.5 10.2 2.4 12 5.4 1.8 3.1-6.5 4.9-11.6 5.7-5 0.9-2.9-9.1-0.4-11.1z"/>
						<path id="&lt;Path&gt;" class="s79" d="m154.6 700c2-2.3 11.3 1.5 14.8 4.2 3.4 2.7-2.4-5.9-6.7-6.5-4.3-0.7-6.6-0.3-7.2-1.1-0.5-0.8-0.1 2.2-0.9 3.4z"/>
						<path id="&lt;Path&gt;" class="s79" d="m359.4 700.1c-2.2-1-8.5 0.3-12.2 3.6-3.8 3.3 2.1-3.4 6.4-5.2 4.3-1.9 5.3-0.2 5.4 0.5 0.2 0.6 0.4 1.1 0.4 1.1z"/>
						<path id="&lt;Path&gt;" class="s80" d="m133.5 471.1c0 0 9 1.4 13.6 0.8 4.5-0.6 13-9.9 19.3-14.9 3.2-2.6 7.6-6 7.6-6 0 0-13.2 9.1-21.6 15.8-7.5 5.8-15.9 5-18.9 4.3z"/>
					</g>
					<path id="&lt;Path&gt;" class="s36" d="m158.4 456.8c0 0 6.3-0.7 7.3-1.7 1.1-0.9 2-8.9 5.2-14.3 3.2-5.4 5.2-1 6-1.5 0.9-0.5 0.2-4.9 1.6-7.7 1.3-2.7 5.9 2.3 9.1 2.2 0 0-2.6 0-5.4-0.6-2.9-0.7-1.7 7.3-3.6 8.7-2 1.3-4.2-0.9-6.8 2.2-2.6 3.1-3.7 10.4-4.9 11.9-1.2 1.4-10.2 7.5-10.2 7.5z"/>
					<path id="&lt;Path&gt;" class="s36" d="m342.7 354c0 0-11 12.2-16.1 17.5-5 5.3-9.3 5.3-9.3 5.3 0 0 5.2-2 10.6-9.6 5.4-7.5 9.2-13.7 10-15.2 0.7-1.6 4.8 2 4.8 2z"/>
					<path id="&lt;Path&gt;" class="s36" d="m136.4 661.3c2.1 9.9 11.6-23.2 18.2-44.4 6.6-21.3 9-34.7 9-34.7 0 0-3.9 18.2-11.6 52.1-7.7 34-11.4 44.3-11.4 44.3z"/>
				</g>
			</g>
			<g id="&lt;Group&gt;">
				<path id="&lt;Path&gt;" class="s81" d="m655.9 114.9c0 0 6.9 337.3-10.9 611.6h28.9c0 0 18.8-548.2 18.9-607.8z"/>
				<path id="&lt;Path&gt;" class="s82" d="m681.5 120c2.1 0.5 3.2 0.8 3.2 0.8 3 133.4-10.8 605.7-10.8 605.7h10.8l11.8-618.4-7.5-0.6c-2.8 4-5.4 8.2-7.5 12.5z"/>
				<path id="&lt;Path&gt;" class="s83" d="m913.1 70.3l-53.6 653.4-14.4 0.3-127.4 2-36.1 0.5 4.9-300.2 2-122.2 3-181.6c0 0 120.9-38.1 221.6-52.2z"/>
				<path id="&lt;Path&gt;" class="s82" d="m913.1 70.3l26.4 4.5-53.2 642.9-26.8 6z"/>
				<g id="&lt;Group&gt;">
					<path id="&lt;Path&gt;" class="s35" d="m870.4 364.1c-17.4-1.4-25.2 24.1-15.6 48 9.6 23.9 43.9-45.6 15.6-48z"/>
				</g>
				<g id="&lt;Group&gt;">
					<path id="&lt;Path&gt;" class="s84" d="m868.1 364.1c-17.4-1.4-25.2 24.1-15.6 48 9.6 23.9 43.9-45.6 15.6-48z"/>
				</g>
				<path id="&lt;Compound Path&gt;" fill-rule="evenodd" class="s85" d="m870.3 252.3c-2.4 3.2-2.2 3-2.3 3.1 24.2 5.2-5.2 32.8-17 18.5-7.4 4.1-4.7 10.4-7.4 16.2 4 0.5 4.7 1.4 3 2.3 0.7-0.3 1-0.6 1-0.6-1.4 46.2-7.5 69.2-5.6 99.8 11.4-0.9 19.7-0.2 21.7-2.6 0 0 7-8.1 7.1-1.6 0.1 6.5-5.4 14.5-11.3 11-4.2-2.5-10.8 3.5-16.2 6.2 2.2 16.5 6.7 35.8 15.3 61.9-61.4 8.6-0.5 184.2-29.6 206.6-0.7 5.5 0.1 8.2-0.2 10.6 2.1 0.4 13.7 24.4 16.3 40.3l-127.4 2c19.9-9.9 53.6-24.4 60.2-34.3 3.3-6.4 3.6-11.8 3.5-14.6-4.3-1-8.8-2.2-12.8-3.7 22.5-66.4 15.2-120.8 23.2-181.9-3.2 19.2-32-101.7-29-110 0-0.1 2.8-1.6 2.9-1.6-19 7.1-43.3 19.5-58.8 19.7 3 12.8-6.3 21.1-20.4 26.7l0.9-109.7c4.6-0.3 7.7-0.6 11.9-1.1 0 0 6.5 8.1 7.9 39.1 22.4-3.1 49.4-15.5 71.4-27.1 17-7.8 19-5.3 22.9-11.1-1-24.5-0.2-19 14.6-22.9 2.3-8.3 1.8-8.6 2.1-9.8-48.1 5.5-19.9-50.5-8.3-65.2-47.3-4.8-34.6-26.3-7.6-26.3 7.9 0 17 1.8 26.2 6.4 13.5-7.1 29.8-12.9 38.9-5.6 26.3 10.6 24.6 49.6 2.9 59.3zm-64.1 428.7q-2.2-0.1-4.6-0.3c2.3 10.3-3.4 6.4-1.7 9.7 0.8 0.6 0.7 0 0.8 0.7 0.1 1 0 2.6-0.1 2.8 8.5-7.9 6.3-7.6 5.6-12.9z"/>
				<g id="&lt;Group&gt;">
					<path id="&lt;Path&gt;" class="s36" d="m656.8 381.7l19.9-15c0 0-14.9 4.6-20.6 9.1z"/>
					<g id="&lt;Group&gt;">
						<path id="&lt;Path&gt;" class="s86" d="m767.7 723.7v7.6c0 0-18.3 3.1-32.7 0.9 0 0-4.6-3.4-13.1-3.4-8.5 0-25.3 6.7-45.6 6.1-16.4-0.5-25.6-3.7-28.6-5.6-0.7-0.4-1-0.8-1-1.1 0-1.2 37.1-11.5 51.5-20.1 14.4-8.6 27.3-20.3 27.8-21.2 0.4-1 4.9 3 9.2 4.5 4.3 1.4 14.9-9.5 14.9-9.5 2-2.2 1.8 1.8 2.1 3 0.3 1.2 13.6 26.2 15.5 38.8z"/>
						<path id="&lt;Path&gt;" class="s68" d="m767.7 723.7v7.6c0 0-18.3 3.1-32.7 0.9 0 0-4.6-3.4-13.1-3.4-8.5 0-25.3 6.7-45.6 6.1-16.4-0.5-25.6-3.7-28.6-5.6 17.2 0.5 39.8 0.6 58-1 33.8-3 62-4.6 62-4.6z"/>
						<g id="&lt;Group&gt;">
							<path id="&lt;Path&gt;" class="s87" d="m750.1 671.3c0 0-0.9 2-0.7 2.6 0.2 0.6 1.2 0.9 1.4 1.7 0.3 0.8-1.4 1.2-1.4 2.2 0 0.9 0.7 4.1 0.7 4.1 0 0-7.2 7.6-10.6 10.9-3.4 3.3-8.3 0-10.4-1.9-2.1-1.9-2.9-4-3.8-4.8-1-0.7 1.2-2.9 1.4-4 0.3-1.2-0.7-1.1-1.1-1.9-0.4-0.8 1.6-6.4 1.6-6.4z"/>
						</g>
						<path id="&lt;Path&gt;" class="s88" d="m757.7 668.7c-16.4 7.2-41.4 4.8-41.4 4.8l4.5-61.5 7.3-97.9 30.3-34.9c0 0-10.3 47.8-9.4 69.2 0.9 21.5 7.2 27.6 8.7 54.3q0.2 4.1 0.4 8.6c0.8 25.8-0.4 57.4-0.4 57.4z"/>
						<path id="&lt;Path&gt;" class="s9" d="m757.7 602.7q0.2 4.1 0.4 8.6c-6.1 24.3-14.9 43.7-23.6 28.8l-13.7-28.1 7.3-97.9 30.3-34.9c0 0-10.3 47.8-9.4 69.2 0.9 21.5 7.2 27.6 8.7 54.3z"/>
						<path id="&lt;Path&gt;" class="s18" d="m726.7 681.3c3.7 5.8 18-4.5 20.1-5.7 2.1-1.1 2.9-3.3 2.9-3.3l0.4-1c0 0-11.4 2.2-22.9 2.5 0 0-0.4 2.9-1.2 4.6-0.8 1.6 0.7 2.9 0.7 2.9z"/>
						<path id="&lt;Path&gt;" class="s68" d="m720.8 696.3c4.7 1.9 30.3 27.7 32.3 33 2.1 5.3-13.1 2.4-15.8 2.6-2.7 0.1-4-1.6-9.4-2.4 0 0-3.2-21.8-7.1-33.2z"/>
						<path id="&lt;Path&gt;" class="s89" d="m719 299.5c-3.5 3-6 0.2-32.8 14.1-26.8 13.9-42.2 19.5-65.8 24-23.6 4.4-35.4 1.6-35.4 1.6 0 0-12.7 17.1-12.7 24.4 0 7.3 73.3 4.7 73.3 4.7l86.4-44.8z"/>
						<g id="&lt;Group&gt;">
							<path id="&lt;Path&gt;" class="s35" d="m596.5 414.1c-33.9 9.9-90.2 17.6-90.2 17.6-3.9-8.3-7.7-18-11.4-28.3-14.6-40.4-26.5-88.9-26.5-88.9 51.2-29.5 111.2-25.3 111.2-25.3q0.3 0.7 0.5 1.5c8 28.6 13.8 92.8 15.7 115.4q0 0.3 0.1 0.7 0.1 1.2 0.2 2.3c0.1 1.8 0.2 3.2 0.3 4q0.1 1 0.1 1z"/>
						</g>
						<path id="&lt;Path&gt;" class="s2" d="m618.3 396.4q0 0 0 0.1-0.3 4.2-0.8 8.5l-21 9.1q0 0-0.1-1c-0.1-0.8-0.2-2.2-0.3-4q-0.1-1.1-0.2-2.3-0.1-0.4-0.1-0.7c-1.9-21.9-7.7-83.4-16.2-115.2q0 0 0.5-0.2c2.5-0.9 15.5-5.5 33.3-8.3 0 0 10.4 50.7 4.9 114z"/>
						<path id="&lt;Path&gt;" class="s90" d="m699.1 683.7c0 0-0.6 8-1.1 10.6-0.5 2.7-2.4 0.9-2.6 2.3-0.2 1.4-0.3 2.5 0 4 0.4 1.5-0.9 2-0.9 2 0 0 3.2 4.9 4.6 6.2 1.3 1.4 17.3-9.1 19.6-9.9 2.4-0.9-0.4-0.1 0-2.1 0.4-2 2.5-2.2 3.1-4.4 0.6-2.1-1.7-1.4-1.2-5.1 0.6-3.7-21.5-3.6-21.5-3.6z"/>
						<path id="&lt;Path&gt;" class="s89" d="m578.8 374.4c0 0 1.8 19.1 9.1 16.6 7.4-2.5 10.5-32 7.4-39.5-3.2-7.6-9.7 0.2-11.8 0.5-2.1 0.3-4.7 22.4-4.7 22.4z"/>
						<path id="&lt;Path&gt;" class="s9" d="m578.8 374.4c0 0 1.8 19.1 9.1 16.6 7.4-2.5 10.5-32 7.4-39.5-3.2-7.6-9.7 0.2-11.8 0.5-2.1 0.3-4.7 22.4-4.7 22.4z"/>
						<path id="&lt;Path&gt;" class="s89" d="m696.4 181c3.9 8.8 53.7 13.8 72.4 15.6 18.7 1.7-16.5-19.2-35.6-28.8-19-9.6-24.9-3.5-28.3 0-3.3 3.5-8.5 13.2-8.5 13.2z"/>
						<path id="&lt;Path&gt;" class="s91" d="m738 260.1c3-0.4-8.5 34.4-9.4 37.2-0.8 2.7 20.8-3.1 26.1-3.8 5.3-0.8 6.7-1.7 6.7-1.7 0 0 5.2-32.1 8.4-37.5 3.2-5.5-31.8 5.8-31.8 5.8z"/>
						<path id="&lt;Path&gt;" class="s9" d="m520.7 383.2c-1 5.3 13.2 21.6 26.8 30.9 13.6 9.2 44.4-12.3 47.4-17.7 2.9-5.4 19.9 3.7 21.3 4.9 1.5 1.3 2.4-15.2 2.4-15.2l-25.1-20.7z"/>
						<path id="&lt;Path&gt;" class="s9" d="m550.3 332.8c-2.5 0.3-1.2 11.6 0.9 17.5 2 6 13.6-3.6 18.4-2.1 4.8 1.6-6.6-12.3-6.6-12.3z"/>
						<path id="&lt;Path&gt;" class="s92" d="m803.9 209.9c-4.4 11.7-21.8 39.6-38.1 45.7q0 0-0.1 0-0.7 0.3-1.4 0.5c-24 7-43.4 8.7-48.5 2.6-1.5-1.8-2.9-5.1-4-9.2q0 0 0 0c-2.5-9.5-3.4-22.8-0.9-29 3.6-8.9 10.2-12.7 14.6-19.6 4.3-6.8 6.2-17.8 9.6-19.8 3.5-2.1 37.1-14.2 49.6-10.4 7.7 2.3 23.8 27 19.2 39.2z"/>
						<path id="&lt;Path&gt;" class="s93" d="m784.8 232.4c0 0 8.4-3.4 15 2.1 6.7 5.5-2.3 15.1-6.8 19.4-4.5 4.3-14.9 0.7-18.2-1.4-3.3-2.1-1.1-8.2-1.1-8.2z"/>
						<path id="&lt;Path&gt;" class="s94" d="m779.9 239c0 0 11.4-3.4 16.1 0 4.7 3.3-2.4 11.3-3.9 13.4-1.6 2.2-3.6 1.8-3.6 1.8 0 0 4.1-2.1 6.3-6.8 2.2-4.7 0-7.5-2.5-8.1-2.4-0.5-2.9 4.1-4.3 6.9-1.3 2.8-4.9 2.6-8-0.2-3.1-2.8 1.9-3.7 2.7-5 0.8-1.4-2.8-2-2.8-2z"/>
						<path id="&lt;Path&gt;" class="s9" d="m788.2 237.6c3.5 0.3 0.3 7.4-1.5 9.2-1.8 1.9-5.9 0.6-7.2-1.4-1.3-1.9 3.4-3.7 3.8-4.7 0.5-1-2.4-2-2.4-2 0 0 5.7-1.3 7.3-1.1z"/>
						<path id="&lt;Path&gt;" class="s95" d="m590.3 374.7c0 0-16.5 3.8-21.9 9.2-5.4 5.4-13.5 12.2-14.7 12.8q-0.7 0.3-1.5 0.5c-2.9 0.9-5.9 0.5-8.3 0.9-2.9 0.5-5.9 0.9-5.9 0.9-4.8-2.5-1.4-7.3-1.4-7.3 2.4-2.3 9-2.1 10.9-3.4q0.3-0.2 0.8-0.5 0 0 0 0c1.8-1.4 4.4-3.6 4.8-4-0.6 0.3-5 2.6-8.2 3.2q-0.3 0.1-0.6 0.1c-3.6 0.5-13 1-14.5 0.5-1.6-0.6-3.5-2.6-3.5-2.6-2.1 0.2-4.5 0-4.5 0-1.4-0.7-4-4.3-2.1-6.5 1.6-1.9 4.1-2.9 5.6-3.4-1.3 0.3-3 0.7-3.8 0.4-1.2-0.3-2.7-3.2-2.4-4.6 0.4-1.4 2.2-5.7 11.5-9 1.7-0.6 3.3-1.1 4.8-1.4 6.9-1.8 11.9-1.4 11.9-1.4 12-2.8 21-10.6 21-10.6 0 0-0.6-4.4-3.5-3.9-2.8 0.5-11.7 0.8-14-6.7-2.3-7.4 2.4-10.7 3.8-11 1.4-0.4 2.9 1.9 6.9 4.8 4 2.8 13.8 8.3 16.6 10.8 2.8 2.5 2 6.7 4.1 8.6 2.2 1.9 5.7 3.1 5.7 3.1 5.5 7.9 2.4 20.5 2.4 20.5z"/>
						<path id="&lt;Path&gt;" class="s96" d="m791.8 231.4c0 0-5.6-1.1-11.2 3.3-5.7 4.5-6.9 3.7-7.6 2.9-0.7-0.8 2.5-4.8 2.5-8.5 0-3.8 4.2-3.6 7.6-9.8 3.4-6.2-2.5-18.3-8-26.2-5.4-8-22.2-15.6-32.5-15.1-10.3 0.6 35.1-10.8 45-11 9.9-0.2 18.6 28.8 18 38.1-0.5 9.3-13.8 26.3-13.8 26.3z"/>
						<path id="&lt;Path&gt;" class="s97" d="m794.3 228.1c0 0-12.5-25.6-20.9-35.7-8.5-10-30.5-18.5-30.5-18.5 0 0 24.5-13.7 36.1-13.5 11.7 0.2 17.5 9.9 24.5 12.3 0 0 6.3 10.8 9 24.5 2.6 13.6-13.1 26.9-14.9 29.6-1.8 2.8-3.3 1.3-3.3 1.3z"/>
						<path id="&lt;Path&gt;" class="s98" d="m782.5 456.9c0.8 1.4-28.6 10.6-51 18.2-22.3 7.6-25 12.5-26.3 12.9-1.3 0.4 1.2-20.2-9.9-55.3-11.1-35.1-21-56.4-6.8-91 14.1-34.6 25.2-34.6 32.1-44.9 6.8-10.4-2.6-19.3-1.3-21.4 1.3-2.1 8.8 0.9 9.8 0.8 1.1-0.2 0.4-2.3 2.1-3.8 1.6-1.5 13.8 1.9 25.9 0.9 11-1 12.7-2.7 12.9-3-0.4 0.8-7.7 15.5-5.7 22.5 1.4 4.9 3.2 11.9 4.4 20.1q0 0 0.1 0.8c0.6 3.8 1 8 1.2 12.3 0.8 13.8-10 32-7.6 62.3 1.7 20.6 10 44.2 15.4 57.6q0 0.2 0 0.2c2.6 6.3 4.5 10.4 4.7 10.8z"/>
						<path id="&lt;Path&gt;" class="s89" d="m720.6 296.8c5.9-7.4 9.2-21.4 9.2-21.4 0 0-1 0.9-4.2-0.1-3.1-0.9-5.4-1.4-6.5-0.5-1.1 1 5.7 11.7 1.5 22z"/>
						<g id="&lt;Group&gt;">
							<path id="&lt;Path&gt;" class="s0" d="m770 270.3c0.5-1.2-4.3-1.7-4.3-1.7l-0.5 2.5c0 0-9.6 2.8-23.3 1.7 0 0 20 3.9 28.1-2.5z"/>
						</g>
						<path id="&lt;Path&gt;" class="s99" d="m746.7 614c-0.6 6.5-2.3 14.6-4.5 23.2v0.1c-6.1 23.9-16 50.4-16 50.4-16.3-0.4-40.9-8.2-40.9-8.2 7.6-20.2 19-76.3 17.8-85.6-1.1-9.3-2.6-9.6 0-22.4 2.7-12.7 2.3-18.6 3.1-39.8 0.5-15.4 2.4-33.3 3.4-42 0.4-3.3 0.6-5.3 0.6-5.3 9-9.6 52.1-19.6 52.1-19.6 0 0-12.2 45.6-15.6 73.9-3.4 28.3 2.3 50.5 0 75.3z"/>
						<path id="&lt;Path&gt;" class="s100" d="m756 345c-7.4 21.2-20 27.2-26.2 28.7-6.2 1.4-3.7-9.7-12.5-12.8-6.2-2.1-19.2-1.4-35.8 4.1q-0.1 0-0.1 0c-7.1 2.4-15 5.6-23.2 9.8-26.6 13.7-52 10.9-60.3 14q-0.5 0.2-0.9 0.4c-2.3 1.2-3.9 2.1-5.1 2.7-2.4 1.4-3.4 1.5-7.1 1.2-5.6-0.3-6.6-14.7-6.6-14.7l2.4-1.1c0 0 0.8 12.6 5.9 11.7 5.2-0.9 7.7-24 7-31.6-0.8-7.6-6.2-5.2-7.5-5.1-1.1 0.1-2.2-0.2-2.4-0.3 1.2 0.4 5.5-6.9 8.4-9.8q0.1-0.1 0.3-0.2c0.2-0.2 0.4-0.3 0.6-0.3q0 0 0 0c0.4 0 0.8 0.3 1.6 0.8 2.6 1.5 9.5 4.5 34.9-0.3 37.9-7 82.1-31.5 105.1-45.4 22.9-13.9 28.9 27 21.5 48.2z"/>
						<path id="&lt;Path&gt;" class="s101" d="m587.9 354.2l4.6-0.3c0 0 1.2 1.3 1 10.3-0.1 9-1.3 11.6-1.3 12-0.1 0.3-4.3-0.9-4.3-0.9 0 0 1.5 0.2 1.9-1.1 0.5-1.3 0.3-12.5-0.8-16.9-0.5-1.9-1.1-3.1-1.1-3.1z"/>
						<path id="&lt;Path&gt;" class="s102" d="m727.9 739.8v4.9c0 0-14.7 1-32.2 0 0 0-0.7-2.6-4.5-3.4-3.8-0.7-11.9 5.5-29.8 6.1-17.8 0.6-37.3-1.1-43.5-4.6-1.9-1-0.6-2.2 2.7-3.6 7.7-3.5 26.5-8.5 41-16.6 20.7-11.6 32.2-22.9 32.9-23.9 0.8-1 2.4 5.5 5.8 7 3.4 1.5 18.5-7.9 18.5-7.9 1.4-1 0.8 3.7 0.8 3.7 0 0 5.1 13.3 8.3 38.3z"/>
						<path id="&lt;Path&gt;" class="s103" d="m753 197.5c0.1-1 1.5-4 2.3-5 0.9-0.9-0.5 3.1-0.5 3.1 0 0 2.2-2.1 4.6-2.2 2.4-0.1 6.8 2.8 8.6 6.4 1.7 3.5 0.2 10.9 0 11.8-0.3 0.8-3.3-4.4-6.5-9-3.2-4.6-8.5-5.1-8.5-5.1z"/>
						<path id="&lt;Path&gt;" class="s104" d="m736.9 190.1c0 0 0.8-7.8 0-9.9-0.9-2.1-4.7-0.8-5.4 0.8-0.8 1.5-0.1 6.2-0.4 7-0.3 0.9 1.8 0.7 3.1 2 1.2 1.2 1.3 4.4 1.3 4.4 0 0 1.2-2.2 1.4-4.3z"/>
						<path id="&lt;Path&gt;" class="s34" d="m753 222.1c-1.3-0.1-2.7-0.2-4.1-0.5-1.6-0.3-3.1-0.8-4.4-1.3q-1.1-0.5-2-1.1c-1.4-0.9-2.2-1.9-2-3 0.6-2.8 2.9-5.7 5.7-7.7 4.5-3.2 10.3-4.5 12.9-1.3 4.3 5.3-0.1 15.2-6.1 14.9z"/>
						<path id="&lt;Path&gt;" class="s34" d="m729.7 207.5q-0.3 0.4-0.7 0.9c-0.8 1-1.9 0.5-2.8-0.6-0.6-0.7-1.2-1.6-1.5-2.5-0.3-0.8 0.4-3 1.4-5.3 0.5-1 1-2.1 1.6-3.1 1.4-2.5 3.1-4.6 4.2-4.9 2.5-0.4 2.8 8.6-2.2 15.5z"/>
						<path id="&lt;Path&gt;" class="s35" d="m750.6 216.7c-0.1 1.9-0.8 3.6-1.7 4.9-1.6-0.3-3.1-0.8-4.4-1.3q-1.1-0.5-2-1.1c-1.4-0.9-2.2-1.9-2-3 0.6-2.8 2.9-5.7 5.7-7.7 2.8 0.8 4.7 4.2 4.4 8.2z"/>
						<path id="&lt;Path&gt;" class="s9" d="m747.7 216.4c-0.1 2.2-1.5 3.9-3.2 3.9q-1.1-0.5-2-1.1c-0.6-0.8-1-1.9-0.9-3.2 0.2-2.3 1.7-4 3.4-3.9 1.7 0.2 2.9 2.1 2.7 4.3z"/>
						<path id="&lt;Path&gt;" class="s35" d="m730.4 204.3c0 1.1-0.3 2.2-0.7 3.2q-0.3 0.4-0.7 0.9c-0.8 1-1.9 0.5-2.8-0.6-0.6-0.7-1.2-1.6-1.5-2.5-0.3-0.8 0.4-3 1.4-5.3 0.5-1 1-2.1 1.6-3.1 1.8 0.9 3 3.9 2.7 7.4z"/>
						<path id="&lt;Path&gt;" class="s9" d="m728.3 204.2c-0.1 1.7-1 3.1-2.1 3.6-0.6-0.7-1.2-1.6-1.5-2.5-0.3-0.8 0.4-3 1.4-5.3 1.4 0.3 2.4 2.1 2.2 4.2z"/>
						<path id="&lt;Path&gt;" class="s36" d="m750.5 214c-0.8-0.3-1.5 1.7-0.5 2.5 0.9 0.9 2.5-0.8 2.1-1.9-0.3-1.1-1.6-0.6-1.6-0.6z"/>
						<path id="&lt;Path&gt;" class="s36" d="m730.5 202.4c-1.6-0.2-1.3-0.8-0.7 0.5 0.6 1.4 2.1-0.2 0.7-0.5z"/>
						<path id="&lt;Path&gt;" class="s2" d="m728.3 195.8c0 0 0.9-4 2.2-5.6 1.3-1.5 5.3 3.1 2.3 11.2 0 0 1.3-6.2 0-8.2-1.4-2-4.5 2.6-4.5 2.6z"/>
						<path id="&lt;Path&gt;" class="s2" d="m748.1 207.3c0 0 3.8-3.3 9-3.4 5.2-0.1 6.5 10.6 0.4 16.4 0 0 4.2-5.9 2.6-11-1.6-5.1-7.5-4.4-12-2z"/>
						<path id="&lt;Path&gt;" class="s37" d="m725 202.8c0 0-0.9 1.8-1.1 2.5-0.2 0.8 1.6 3.4 3.9 3.6 0 0-1.9-1.4-2.6-3.1-0.7-1.6-0.2-3-0.2-3z"/>
						<path id="&lt;Path&gt;" class="s37" d="m741 214.7c0 0-1.1 2-1.1 3.2 0.1 1.2 2.9 4.2 7.1 4.7 6.5 0.7 9.3-1.4 9.3-1.4 0 0-1.6 0.8-3.3 0.9-1.6 0.1-10.1-1.1-11.9-4.6-0.7-1.4-0.1-2.8-0.1-2.8z"/>
						<path id="&lt;Path&gt;" class="s105" d="m731.6 228.7c0 0-2.7-2.5-4.5-2.7-1.8-0.1-0.3 1.6-0.3 1.6 0 0-2.2 0.6-4.1-0.5-1.9-1.1-2.7-3.6-3.6-4.5-1-0.9-2.4-3.9-1.5-5.6 1-1.8 6.2-7.3 12.2-5.2 5.9 2.1 8.8 11.4 7.7 15.5-1.1 4.1-5.9 1.4-5.9 1.4z"/>
						<path id="&lt;Path&gt;" class="s39" d="m730.5 227.8c0 0-3.2-0.5-3.8-0.4-0.7 0.2-1.4-1.3-0.8-2.3 0.5-0.9 4.6 2.7 4.6 2.7z"/>
						<path id="&lt;Path&gt;" class="s39" d="m720.1 224.1c0 0-1-2.1-1.2-3.5-0.2-1.5-2.8 0 1.2 3.5z"/>
						<path id="&lt;Path&gt;" class="s43" d="m737.7 225.9c-1 2.9-6.9 0.2-11-2.2-4.1-2.3-8.1-4.4-8.7-4.5-0.6 0-0.7-0.7-0.7-0.7 0 0-0.7 6.6 4 11.5 4.8 4.8 13.3 1.1 15.2 0.2 1.9-0.8 1.2-4.3 1.2-4.3z"/>
						<path id="&lt;Path&gt;" class="s77" d="m720.7 213.5c3.4-3.1 7.8-1.5 11.2 1.5 3.4 3.1 3.7-7 4.2-11.5 0.5-4.5-5 2.9-7.9 5.6-3 2.7-4.2 1.7-7.5 4.4z"/>
						<path id="&lt;Path&gt;" class="s40" d="m715.4 228.5c-0.7 0 0.5 5.2 0.6 9.4 0.2 4.1-1 7 2.9 8.4 3.9 1.3 15.6-4.1 17.6-7.3 2.1-3.3 2-3.4-0.4-3.3-2.3 0-10.9-0.8-15.1-2.3-4.2-1.4-5.6-4.9-5.6-4.9z"/>
						<path id="&lt;Path&gt;" class="s41" d="m716.2 230.8c-0.6-0.3 0.9 4.9 0.6 8.7-0.3 3.7 5 6.5 11.1 4 6-2.5 7.8-5.6 7.9-6.6 0.2-1-4-0.1-11.6-1.9-7.6-1.7-8-4.2-8-4.2z"/>
						<path id="&lt;Path&gt;" class="s36" d="m717.2 232.3c-0.4-0.1 0.4 3.5 0.3 4-0.1 0.5-1 3.2-0.4 4.6 0.6 1.3 2.6 3.6 10.1 2.5 5-0.7 6.3-4.3 6.2-5-0.2-0.6 1.3-2 1.3-2 0 0-7.6-0.3-11.3-1.1-3.7-0.8-6.2-3-6.2-3z"/>
						<path id="&lt;Path&gt;" class="s106" d="m734.3 233c0 0 5.3 1.4 6.2 7.6 0 0 3.3-6.6-6.2-7.6z"/>
						<path id="&lt;Path&gt;" class="s9" d="m765.7 255.6q-0.7 0.3-1.4 0.5c-24 7-43.4 8.7-48.5 2.6-1.5-1.8-2.9-5.1-4-9.2 0.3 0.8 2.6 7.1 6.1 8.5 3.7 1.5 26.3 3.8 47.8-2.4z"/>
						<path id="&lt;Path&gt;" class="s9" d="m738.5 261.8c0 0-0.9 5.9-1.6 9.5-0.8 3.6 16.5-1.1 20.8-4 4.3-2.9 12.1-13 12.1-13 0 0-15.9 5.5-31.3 7.5z"/>
						<path id="&lt;Path&gt;" class="s18" d="m699 684.7c0 0 0.1 4.3 8.7 6.4 8.6 2.2 12.9-2.2 12.9-2.2v-1.6c0 0-15.4-3-21.6-4z"/>
						<path id="&lt;Path&gt;" class="s9" d="m722.7 204.6c-6.5 7.2 2.7 7.1 7.5 2.4 4.9-4.7 6.4-11.8 7.5-16.5 1-4.6-5.9-8.9-5.9-8.9 0 0-0.5 4.4-0.7 6.4-0.1 2.1-3.8 11.6-8.4 16.6z"/>
						<path id="&lt;Path&gt;" class="s46" d="m746.2 195.9c2.6 0.7-7.7 16.2-8.2 21.4-0.5 5.2 13.8 11.1 24.4 5.4 10.6-5.6 7-18.2 7.4-19.3 0.4-1 9.6-2.4 9.6-2.4z"/>
						<path id="&lt;Path&gt;" class="s107" d="m779.4 199.3c0 0-11.8-19.7-28.4-28.1-6-3.1-22.7-6.8-34.1-9 0 0 3.2 2.4 13 16.3 18.3 25.5 49.5 20.8 49.5 20.8z"/>
						<g id="&lt;Group&gt;">
							<path id="&lt;Path&gt;" class="s2" d="m779.4 201c0 0-28.5-2.4-39.2-7.1-10.7-4.6-10.7-24.5-23.3-27.4-9.3-2.2-19 11.7-19.2 14.3-0.3 2.6-3.4-0.9-3.4-0.9 0 0 7.4-19.5 22.6-17.7 15.1 1.9 15.3 21.4 24.4 27.6 7 4.8 29.8 7.9 38.1 9.5z"/>
						</g>
						<path id="&lt;Path&gt;" class="s75" d="m772.1 231.4c-3-5.4-26.9 9.9-34.9 19-8 9.1 17.8 7.3 26.2 3.9 8.3-3.5 8.7-22.9 8.7-22.9z"/>
						<path id="&lt;Path&gt;" class="s46" d="m781.2 201c0 0 14.2-6.7 18.6-11 4.3-4.4 4.1-13.7 4.1-13.7 0 0 7.8 13.4 8.8 25.8 0.7 9.2-15.8 25.5-17.1 25.7-1.3 0.3-14.4-26.8-14.4-26.8z"/>
						<path id="&lt;Path&gt;" class="s9" d="m779.4 201v-1.7c0 0-16.5-24.8-29.9-28.9 0 0 6.6 1.3 9.6 2.8 3 1.5 21 25.7 21.5 26.8 0.6 1-0.5 2.1-0.5 2.1z"/>
						<g id="&lt;Group&gt;">
							<path id="&lt;Path&gt;" class="s6" d="m760 171.6c0 0 11.9-7.2 19.4-8.4 7.5-1.1 11.8 1.2 11.8 1.2 0 0-3.3-3.1-11.3-2.2-7.9 1-20.5 8-21.9 9-1.4 1 2 0.4 2 0.4z"/>
						</g>
						<path id="&lt;Path&gt;" class="s89" d="m802.2 172.2c0 0 3.4-1.1 4.5 0 1.1 1 0 8.1 0 8.1 0 0-3.1-6.1-4.5-8.1z"/>
						<path id="&lt;Path&gt;" class="s9" d="m698.2 179.6c-1 2.9 24.7 4.9 28.8 4.3 4.1-0.6-1.1-16-10.1-17.4-9-1.5-17.7 9.8-18.7 13.1z"/>
						<path id="&lt;Path&gt;" class="s108" d="m688.4 362.9c11.8-2.4 36.6 14.8 47.8 16.2 0 0-6-2-15.3-8.8-9.2-6.8-21.7-10.8-32.5-7.4z"/>
						<path id="&lt;Path&gt;" class="s9" d="m698.3 360.8c0 0 16.4 1.9 21.8 5.1 5.3 3.1 2.5-3.7-2.3-7.2-4.8-3.6-19.5 2.1-19.5 2.1z"/>
						<path id="&lt;Path&gt;" class="s46" d="m591.9 391.9c-2.4 1.4-3.4 1.5-7.1 1.2-5.6-0.3-6.6-14.7-6.6-14.7l2.4-1.1c0 0 0.8 12.6 5.9 11.7 5.2-0.9 7.7-24 7-31.6-0.8-7.6-6.2-5.2-7.5-5.1-1.1 0.1-2.2-0.2-2.4-0.3 1.2 0.4 5.5-6.9 8.4-9.8q0.1-0.1 0.3-0.2 0.3-0.2 0.6-0.3 0 0 0 0c0.6-0.1 1.1 0.2 1.6 0.8 4.5 5.6 5.7 39.2-2.6 49.4z"/>
						<path id="&lt;Path&gt;" class="s109" d="m722.1 296.8c-2.7 3.5 16.5-3.3 28-6.9 11.5-3.5 11.3 3.3 12.3 0.7 1-2.7 4.8-14.2 6.2-17.2 1.4-3.1-14.2 2.3-24.8 2-10.6-0.4-21.7 21.4-21.7 21.4z"/>
						<path id="&lt;Path&gt;" class="s110" d="m681.7 380.7c1.6-15.2 25.5 46.9 38.4 56.3 12.8 9.3-11.4 34.8-13.9 43.7-2.6 8.8 1.1-8-7.9-37.6-5-16.6-17.8-51-16.6-62.4z"/>
						<path id="&lt;Path&gt;" class="s111" d="m777.8 445.9c-1.4-2.7-22.9-46.5-22.9-74.4 0-28.8 6.8-27.5 11.5-34.6 4.1-6.2 2.8-19.9 2.4-23.2 0.6 3.8 1 8 1.2 12.3 0.8 13.8-10 32-7.6 62.3 1.7 20.6 10 44.2 15.4 57.6z"/>
						<path id="&lt;Path&gt;" class="s9" d="m704.4 313.7c0 0 21.6-11.8 37.2-19.7 15.6-7.9 22.3 30.4 13.2 59.9-9 29.5-26.7 22.3-31.9 12.8 0 0 4.7 9.9 15.1 9.5 10.3-0.4 18.7-16.7 21-39.7 2.2-22.9-3.6-43.2-10.9-44.3-7.3-1.1-43.7 21.5-43.7 21.5z"/>
						<path id="&lt;Path&gt;" class="s9" d="m738 376.2c0 0-0.7 48.2 16.9 86.3 0 0-44.1 3.6-50.3 20.5 0 0 9.6-13.4 29.7-16.3 20.1-3 40.6-5.1 46.7-13.1 0 0-7.9 7.3-24.8 8.6 0 0-15.9-34.4-18.2-86z"/>
						<path id="&lt;Path&gt;" class="s112" d="m741.7 417.8c0 0-6.7 8.8-8.8 19.6-2.1 10.8 20 20.4 20 20.4 0 0-8.8-22.1-11.2-40z"/>
						<path id="&lt;Path&gt;" class="s9" d="m741.2 419.6c0.5-1.8 4.8 18.5 6.5 23.6 1.6 5.1-7.6 4.7-10.8 2.3-3.1-2.5-4.7-14 4.3-25.9z"/>
						<g id="&lt;Group&gt;">
							<path id="&lt;Path&gt;" class="s6" d="m740.4 409.3c0 0-11.1 17.5-12.5 25.5-1.3 7.9 8.9 15.6 14.9 17.4 0 0-11.1-7.7-10.8-16.6 0.3-9 9.7-17.8 9.7-17.8z"/>
						</g>
						<path id="&lt;Path&gt;" class="s110" d="m655.1 335.3c44.2-17.4 25.5 3 26.5 9.1 1.1 6 41.2 4.6 56.2-10.3 9.2-9.2 4.3-32.3-2.5-33.3-6.8-1-28.1 11.4-41.3 18.7-13.1 7.3-38.9 15.8-38.9 15.8z"/>
						<path id="&lt;Path&gt;" class="s9" d="m696 308.7c11-4.7-8 13.7-21 19.4-13.1 5.7-23.8 10.3-33.3 10.4-9.4 0.1 9.3-6.4 27.4-15.9 18.1-9.6 26.9-13.9 26.9-13.9z"/>
						<path id="&lt;Path&gt;" class="s113" d="m721.2 298c0 0 12.1-16.7 17.6-20.2 5.5-3.5 13.1-2.4 13.1-2.4 0 0-11.5 8.6-17.6 14.3-6.2 5.7-13.1 8.3-13.1 8.3z"/>
						<path id="&lt;Path&gt;" class="s9" d="m729.2 277.7c-1.6-1.2-5.6-1.8-6.5 0-0.9 1.8 0.9 14.5 0.9 14.5 0 0 4.6-8.6 5.6-14.5z"/>
						<path id="&lt;Path&gt;" class="s9" d="m526.7 374.8c0 0 11.3-1.1 13.5-1.6 2.2-0.5 17.3-7 17.3-7 0 0-13.7 6.7-17.1 8.1-3.4 1.4-9.4 0.2-13.7 0.5z"/>
						<path id="&lt;Path&gt;" class="s9" d="m526.3 385c0 0 15.1-1.5 17.6-2.3 2.4-0.9 13.6-6.9 13.6-6.9 0 0-10.8 6.5-13.6 8.1-2.9 1.6-17.6 1.1-17.6 1.1z"/>
						<path id="&lt;Path&gt;" class="s60" d="m555.9 327.2c-1.3-0.3-2.7 3.7-2.8 5.4-0.1 1.7 4.1 4.3 8.8 3 4.6-1.4-6-8.4-6-8.4z"/>
						<path id="&lt;Path&gt;" class="s60" d="m523.8 374.6c-1.4 0.1-2.6-3.4-2.3-5.3 0.4-2 6.3-3.1 10.2-1 3.8 2-2.3 6-7.9 6.3z"/>
						<path id="&lt;Path&gt;" class="s60" d="m521.5 379.9c-2.3 1.4 1.1 4 2.8 4.6 1.6 0.5 6.5-0.3 8.2-2.8 1.6-2.5-8.7-3.3-11-1.8z"/>
						<path id="&lt;Path&gt;" class="s60" d="m527.4 385.2c-0.8 0.5 1.9 2.5 3.8 2.6 1.8 0 5.2-0.5 5.6-1.6 0.4-1.1-9.4-1-9.4-1z"/>
						<path id="&lt;Path&gt;" class="s60" d="m538.2 398.6c-0.7-0.1-1.9-2.3-1.4-3.5 0.4-1.3 6-1.2 8.5 0.5 2.6 1.7-5.8 3.3-7.1 3z"/>
						<path id="&lt;Path&gt;" class="s71" d="m544.3 387.1c-3.6 0.5-13 1-14.5 0.5-1.6-0.6-3.5-2.6-3.5-2.6-2.1 0.2-4.5 0-4.5 0-1.4-0.7-4-4.3-2.1-6.5 1.6-1.9 4.1-2.9 5.6-3.4-1.3 0.3-3 0.7-3.8 0.4-1.2-0.3-2.7-3.2-2.4-4.6 0.4-1.4 2.2-5.7 11.5-9 1.7-0.6 3.3-1.1 4.8-1.4-6.2 2 4.4 5.5 5.8 8.2 1.5 2.7-1.8 5-1.8 5 0 0 0.2 8.1 4.5 9 0 0-0.1 3.6 1 4.3q-0.3 0.1-0.6 0.1z"/>
						<path id="&lt;Path&gt;" class="s71" d="m552.2 397.2c-2.9 0.9-5.9 0.5-8.3 0.9-2.9 0.5-5.9 0.9-5.9 0.9-4.8-2.5-1.4-7.3-1.4-7.3 2.4-2.3 9-2.1 10.9-3.4q0.3-0.2 0.8-0.5 0 0 0 0c0 0 0.2 8.4 3.9 9.4q0 0 0 0z"/>
						<path id="&lt;Path&gt;" class="s114" d="m704.4 479.2c1.8-6.6 15.1-19.5 16.9-30.6 1.8-11.1-12.3-7.3-14.6-5.3-2.3 2-1.3 15.3-1.3 21.5 0 6.3-1 14.4-1 14.4z"/>
						<path id="&lt;Path&gt;" class="s72" d="m737.3 463.2c10-3.2-8.8-7.2-12.2-8.5-3.4-1.4-14.2 17-15.8 19.8-1.6 2.7 7.2-10.2 28-11.3z"/>
						<path id="&lt;Path&gt;" class="s9" d="m681.4 365c-7.1 2.4-15 5.6-23.2 9.8-26.6 13.7-52 10.9-60.3 14 8.9-3.6 37.6-7.1 52.9-12.1 15.8-5.2 18.6-9.1 30.6-11.7z"/>
						<g id="&lt;Group&gt;">
							<path id="&lt;Path&gt;" class="s6" d="m785.7 198.8c-6.3 0.5 11.6-5.7 15.6-13.2 3-5.8 2.4-10.1 2.4-10.1 0 0 0.9 7-2.5 12.6-3.4 5.6-15.5 10.7-15.5 10.7z"/>
						</g>
						<path id="&lt;Path&gt;" class="s115" d="m746.7 614c-0.6 6.5-2.3 14.6-4.5 23.2 0.5-2.4 7.5-41.7 2.4-53.5-5.3-12.1-14.2-8-12.6-21.2 1.6-13.1 12.6-46.2 9.2-62.6-3.5-16.4-15.1-28.8-31.6-10.2 0.4-3.3 0.6-5.3 0.6-5.3 9-9.6 52.1-19.6 52.1-19.6 0 0-12.2 45.6-15.6 73.9-3.4 28.3 2.3 50.5 0 75.3z"/>
						<path id="&lt;Path&gt;" class="s115" d="m701.8 579.7c1.3-8.2 9.7 7 12.2 13.3 2.5 6.3-9.9 21.3-11.4 24-1.5 2.6 0.9-17.3 1.2-21.8 0.2-4.4-2.3-8.7-2-15.5z"/>
						<path id="&lt;Path&gt;" class="s116" d="m703.1 593.9c0.5 2.8 11.9 25.3 17.5 49 5.6 23.6 4.8 39.5 3.2 41.6-1.5 2.1-9.5 1.8-11.2-2.6-1.6-4.3 3.2-23.7 2.8-42.5-0.3-18.8-12.3-45.5-12.3-45.5z"/>
						<path id="&lt;Path&gt;" class="s9" d="m703.1 593.9c1.2 6.6 8.7 3.4 9.5-1.3 0.8-4.7-7.2-13.3-9.5-13.1-2.2 0.2-0.5 6.8-0.3 9.1 0.1 2.3 0.3 5.3 0.3 5.3z"/>
						<path id="&lt;Path&gt;" class="s9" d="m710.2 484.4l-0.6 5.3c0 0 9.4-12.3 26.3-10.5 17 1.7 20.6 8.8 20.6 8.8l5.8-23.2c0 0-15.6 3.7-25 7-9.4 3.2-23.1 7.6-27.1 12.6z"/>
						<path id="&lt;Path&gt;" class="s68" d="m727.9 739.8v4.9c0 0-14.7 1-32.2 0 0 0-0.7-2.6-4.5-3.4-3.8-0.7-11.9 5.5-29.8 6.1-17.8 0.6-37.3-1.1-43.5-4.6-1.9-1-0.6-2.2 2.7-3.6-2.3 6.5 30.8 7.5 66.6 1.7 35.9-5.8 40.7-1.1 40.7-1.1z"/>
						<path id="&lt;Path&gt;" class="s64" d="m625.6 738c-7.2 3.7 24.1 4.8 45.3-3.1 21.2-8 19.4-32.2 18.8-31.7-0.7 0.6-8.4 8.8-27.1 18.8-18.8 10-37 16-37 16z"/>
						<path id="&lt;Path&gt;" class="s63" d="m703.1 575.2c0.1 2.2 8.1 4.7 9.5 6.4 1.5 1.7 0.9-22.2-1.7-26.5-2.7-4.4-7.8 20.1-7.8 20.1z"/>
						<g id="&lt;Group&gt;">
							<path id="&lt;Path&gt;" class="s117" d="m468.4 314.5c0 0 83.7-11.8 113.5-18.5l31.5-13.6c0 0-69.6 4.8-87.1 8.2 0 0-30.6 7.8-57.9 23.9z"/>
						</g>
						<path id="&lt;Path&gt;" class="s9" d="m618.3 396.5q-0.3 4.2-0.8 8.5l-21 9.1c-33.9 9.9-90.2 17.6-90.2 17.6-3.9-8.3-7.7-18-11.4-28.3 0.4 0.8 8.7 16.5 14 19.8 5.5 3.4 64.4-4 82.3-8.6q2.8-0.7 5.2-1.5c14-4.3 19.3-9 19.9-9.7 0.8-0.8 1.9-6.2 2-6.9z"/>
						<path id="&lt;Path&gt;" class="s118" d="m524.8 308.6c-20 6.3 38.4 12.5 50.2 21.2 11.9 8.6 7.5-25.7 3.8-29.1-3.7-3.3-54 7.9-54 7.9z"/>
						<path id="&lt;Path&gt;" class="s119" d="m474.5 311.4c-2.4 1.9 74.7-8.5 95.3-14.2 20.7-5.7 35.4-13.4 35.8-13.8 0.4-0.5-72.9 5.8-81.3 8.4-8.5 2.6-49.8 19.6-49.8 19.6z"/>
						<g id="&lt;Group&gt;" style="mix-blend-mode: soft-light">
							<path id="&lt;Path&gt;" class="s120" d="m481.9 328.4c0 0 3.6 16.8 5 19.7 1.5 3 35.4-3.4 36.6-3.9 1.3-0.5-4.4-19.2-5.3-19.9-1-0.8-27 3.6-36.3 4.1z"/>
						</g>
						<path id="&lt;Path&gt;" class="s72" d="m687 674.6c4.5-4.5 17.9 10.8 39.2 13.1 0 0-23.8-1.9-40.9-8.2z"/>
						<path id="&lt;Path&gt;" class="s6" d="m738 377.4c0 0-0.6 21.6-0.6 26.4 0 4.7 3.4 9.6 3.4 9.6 0 0-2.9-22-2.8-36z"/>
						<path id="&lt;Path&gt;" class="s6" d="m709.1 479.2c-2.9 6.8 10.5-2.1 21.3-6.4 10.8-4.3 21.2-6.7 21.2-6.7 0 0-13.5-1-25.2 2.9-11.7 3.9-17.3 10.2-17.3 10.2z"/>
						<path id="&lt;Path&gt;" class="s6" d="m729.6 373.3c0 0 3.9 3 11.8 0 7.9-3 12-15.8 12-15.8 0 0-5.9 12.5-13 15-7.1 2.6-10.8 0.8-10.8 0.8z"/>
						<path id="&lt;Path&gt;" class="s6" d="m717.2 302.5c-8.1 7.1 15.7-5.4 23.6-9.6 7.9-4.2 14.1 1.6 14.1 1.6 0 0 2.8-6.5-6.4-9-9.2-2.4-31.3 17-31.3 17z"/>
						<path id="&lt;Path&gt;" class="s6" d="m731.6 272.6c-1.4 1.1-4.2 11.3-3.9 12.9 0.3 1.7 8-7.3 10.5-8.9 2.4-1.7-6.6-4-6.6-4z"/>
						<path id="&lt;Path&gt;" class="s121" d="m629.5 342.2c0 0 7.2 4.1 31.5 5 27.4 1 40.3-3.6 40.3-3.6 0 0-19.9 2.6-37.3 0.5-17.4-2-34.5-1.9-34.5-1.9z"/>
						<path id="&lt;Path&gt;" class="s122" d="m713.7 357.5c10.3-1.9 31.2 4.5 34.1 6.6 3 2-6.8 4.9-11 6.8-4.1 1.9-13.5-11.6-23.1-13.4z"/>
						<path id="&lt;Path&gt;" class="s9" d="m682.1 365.1c-0.4 3.9 11.9-1.6 16.2-3 4.3-1.4 9.2 17 20.7 31.1 11.4 14.2 24-19.1 20.1-27-3.9-8-16.6-8.7-25.4-8.7-6.6 0-31.6 7.6-31.6 7.6z"/>
						<path id="&lt;Path&gt;" class="s123" d="m749.5 170.4c0 0 7-0.1 13.2-1.8 6.1-1.7 6.5-7 14.5-7.8 4.2-0.4 10.4 1.4 10.4 1.4 0 0-6.4-2.4-11-1.8-8.1 1-27.1 10-27.1 10z"/>
					</g>
					<path id="&lt;Path&gt;" class="s36" d="m652.1 329.1l5.1-8.1c0 0 22.3-4.5 30.8-8.5 0 0-21 11.1-35.9 16.6z"/>
					<path id="&lt;Path&gt;" class="s36" d="m645 719.9c5.1 6.5 44.7-16.7 44.7-16.7 0 0-21.2 19.6-54.3 30.5z"/>
					<path id="&lt;Path&gt;" class="s36" d="m485.9 304l3.2 37.5v-38.5z"/>
				</g>
				<path id="&lt;Path&gt;" class="s124" d="m435.6 104.1c0 0 173.5 6.8 223.7 18.5l25.4-1.8c0 0-96.3-26.3-200.7-23.3z"/>
				<g id="&lt;Group&gt;">
					<path id="&lt;Path&gt;" class="s120" d="m481.4 748.5h31.3c0 0-48.2-578.2-53.3-659.1l-28.3 7.4c0 0 41.3 571.3 50.3 651.7z"/>
				</g>
				<path id="&lt;Path&gt;" class="s82" d="m459.4 89.4c18.7 248.9 53.3 659.1 53.3 659.1l11.5-8.3c-15.2-162.2-55.5-636.6-55.5-636.6 110.8-5.4 195.6 12.4 212.8 16.4 2.1-4.3 4.7-8.5 7.5-12.5z"/>
				<g id="&lt;Group&gt;">
					<path id="&lt;Path&gt;" class="s120" d="m894.9 358.7h18.2l-5 55.6h-17.2z"/>
				</g>
				<path id="&lt;Path&gt;" class="s125" d="m870.8 383.2c-5.8 0.9-9.5-6.2-13.8-8.3-4.3-2.2-39-3.1-49.1-1.9-10.1 1.2 7.8 12 17.6 13.5 9.9 1.5 23.2-5 28.2-5.6 8-1.1 4.9 8.4 7.6 13.6 9.5 4.8 9.5-11.3 9.5-11.3z"/>
				<path id="&lt;Path&gt;" class="s126" d="m859.5 723.7c0 0 18.2-230.9 21.9-271.5 3.7-40.5 16.1-22.1 20.6 0 4.4 22.2-12.2 222.8-14.2 246.7-2 24-28.3 24.8-28.3 24.8z"/>
				<path id="&lt;Path&gt;" class="s36" d="m619.4 327.7l0.3 6.1c0 0 0.9-5.5 3.1-6.7 2.2-1.2-3.4-1.2-3.4-1.2z"/>
				<path id="&lt;Path&gt;" class="s84" d="m897.6 375.6c-1.7 1.1-2.3 22.8-2.3 25.7 0 2.9 9.8 3 10.9 2.1 0.8-0.6 3.4-27 2-28.1-1.3-1.2-8.8-0.8-10.6 0.3z"/>
				<path id="&lt;Path&gt;" class="s85" d="m896.6 378.9c2.5-4.5 8-1.8 9.3 0.6 1.2 2.5-1 21-1.4 22.7-0.4 1.7-5.4 0.7-7.9 0-2.4-0.8 0-23.3 0-23.3z"/>
				<path id="&lt;Path&gt;" class="s126" d="m656 121.9c0 0 3.3 6.1 15.1 16 11.7 9.8 13.6-17.1 13.6-17.1 0 0-31.2-7.5-61-10.9-29.8-3.3-57.8 0-57.8 0 0 0 68.6 4.8 90.1 12z"/>
				<path id="&lt;Path&gt;" class="s127" d="m512.7 748.5c0 0-26.8-308.4-26.5-320.3 0.3-11.9 21.3 163.4 26.5 222.6 5.1 59.1 0 97.7 0 97.7z"/>
				<path id="&lt;Path&gt;" class="s126" d="m674.4 711.5c0 0 5.3-127.7 6.2-184.4 0.9-56.7 4.6-73.3 4.6-73.3 0 0-2.8 222.1-3 237.9-0.3 15.9-7.8 19.8-7.8 19.8z"/>
			</g>
			<g id="&lt;Group&gt;">
				<g id="&lt;Group&gt;">
					<path id="&lt;Path&gt;" class="s27" d="m141.9 340.8c-20.4 18.7 27.1 31.7 29.8 14.4 2.8-17.4-9-33.4-29.8-14.4z"/>
				</g>
				<g id="&lt;Group&gt;">
					<path id="&lt;Path&gt;" class="s27" d="m771.7 89.3c-20-3.9-23.6 17-6.1 23 13 4.4 24.1-19.5 6.1-23z"/>
				</g>
				<g id="&lt;Group&gt;">
					<path id="&lt;Path&gt;" class="s2" d="m418.9 432.4c-7 6.5 6.2 13.1 11.1 6 4.9-7.1-6.3-10.4-11.1-6z"/>
				</g>
				<g id="&lt;Group&gt;">
					<path id="&lt;Path&gt;" class="s35" d="m196.8 96.9c-6.9 3.3 4.3 11.1 8.1 7 3.8-4 1.9-11.8-8.1-7z"/>
				</g>
				<g id="&lt;Group&gt;">
					<path id="&lt;Path&gt;" class="s35" d="m605.7 499c-13.7 6.5 8.6 22 16.2 13.9 7.5-8.1 3.9-23.5-16.2-13.9z"/>
				</g>
			</g>
		</g>
	</g>
</svg>