<svg version="1.2" xmlns="http://www.w3.org/2000/svg" viewBox="0 0 500 500" width="1000" height="1000">
	<title>2719787_383009-PCH7VX-156-svg</title>
	<style>
		.s0 { fill: #cf4c30 } 
		.s1 { fill: #59364c } 
		.s2 { opacity: .2;fill: #59364c } 
		.s3 { fill: none } 
		.s4 { fill: #e8e6dd;stroke: #cf4c30;stroke-linecap: round;stroke-linejoin: round;stroke-width: 1.6 } 
		.s5 { fill: #c2412d } 
		.s6 { fill: none;stroke: #e8e6dd;stroke-linecap: round;stroke-linejoin: round;stroke-width: 1.6 } 
	</style>
	<g id="BACKGROUND">
	</g>
	<g id="OBJECTS">
		<g id="Layer">
			<g id="Layer">
			</g>
			<g id="Layer">
			</g>
			<g id="Layer">
				<path id="Layer" class="s0" d="m243.4 246h0.8c1.3 0 2.4-1 2.4-2.3v-11.2c0-1.3-1.1-2.4-2.4-2.4h-57.8c-1.3 0-2.4 1.1-2.4 2.4v11.2c0 1.3 1.1 2.3 2.4 2.3z"/>
				<path id="Layer" class="s1" d="m244 226.5v-45.4c0-2-1.6-3.6-3.6-3.6h-50.2c-2 0-3.6 1.6-3.6 3.6v45.4c0 2 1.6 3.6 3.6 3.6h50.2c2 0 3.6-1.6 3.6-3.6z"/>
				<g id="Layer">
					<path id="Layer" class="s0" d="m332.3 273.2c-1.1-7.4-6.2-26.9-28.8-27.8-1-0.1-1.9-0.7-2.2-1.6l-16.2-44.2q-0.2-0.7-0.1-1.4l2.4-2c1.5 0 2.6-1.2 2.5-2.6l-0.5-10.7c0-1.3-1.1-2.4-2.4-2.4h-11c-0.9 0-1.7 0.5-2.1 1.3l-5.8 10.2q-0.3 0.6-0.4 1.2l-1.6 75.6c0 1.4-1.1 2.5-2.5 2.5h-17.7c-1.4 0-2.5-1.1-2.5-2.5v-23c0-1.4-1.1-2.5-2.5-2.5h-41.2q-0.2 0-0.4 0c-2.4 0.5-24.3 5.1-25.4 36.3-0.1 1.4 1 2.6 2.4 2.6h2.7q-0.1-1-0.1-1.9c0-17.1 13.8-30.9 30.9-30.9 17 0 30.9 13.8 30.9 30.9q0 0.9-0.1 1.9h25.7q-0.1-1-0.1-1.9c0-17.1 13.8-30.9 30.9-30.9 15.6 0 28.5 11.6 30.5 26.7q0.1 0 0.2 0h2c1.5 0 2.7-1.4 2.5-2.9z"/>
					<path id="Layer" class="s0" d="m209.8 249.4c-17.1 0-30.9 13.8-30.9 30.9q0 0.9 0.1 1.9h61.6q0.1-1 0.1-1.9c0-17.1-13.9-30.9-30.9-30.9z"/>
					<path id="Layer" class="s2" d="m209.8 249.4c-17.1 0-30.9 13.8-30.9 30.9q0 0.9 0.1 1.9h61.6q0.1-1 0.1-1.9c0-17.1-13.9-30.9-30.9-30.9z"/>
					<path id="Layer" class="s0" d="m297.1 249.4c-17.1 0-30.9 13.8-30.9 30.9q0 0.9 0.1 1.9h56.5c1.4 0 2.5-1.1 2.5-2.5v-1.2c0-1.3 1-2.4 2.3-2.4-2-15.1-14.9-26.7-30.5-26.7z"/>
					<path id="Layer" class="s2" d="m297.1 249.4c-17.1 0-30.9 13.8-30.9 30.9q0 0.9 0.1 1.9h56.5c1.4 0 2.5-1.1 2.5-2.5v-1.2c0-1.3 1-2.4 2.3-2.4-2-15.1-14.9-26.7-30.5-26.7z"/>
				</g>
				<g id="Layer">
					<g id="Layer">
						<path id="Layer" fill-rule="evenodd" class="s3" d="m181.4 283.2q0 0 0 0-0.1 0-0.1 0z"/>
						<path id="Layer" fill-rule="evenodd" class="s3" d="m182.8 270.9q0-0.1 0-0.1h-0.3q0.1 0 0.3 0.1z"/>
						<g id="Layer">
							<path id="Layer" class="s1" d="m211.3 252.2q-0.4-0.1-0.7-0.1h-1.3-20.7c-1.7 0-3.1 1.4-3.1 3.2 0 1.5 1 2.7 2.5 3h3q0.3 0 0.6 0.1 0 0 0.1 0c1.4 0.3 2.4 1.6 2.4 3.1 0 1.4-0.8 2.5-2 3q-0.5 0.2-1.1 0.2h-5.1-13.6c-1.2 0.4-2.1 1.6-2.1 2.9 0 1.4 0.8 2.5 2 3h9.1q0.6 0 1.2 0.2h0.3q0 0 0 0.1c1 0.5 1.7 1.6 1.7 2.8 0 1.7-1.4 3.1-3.1 3.2q0 0 0 0-0.1 0-0.1 0h-19.6c-1.8 0-3.2 1.4-3.2 3.1 0 1.8 1.4 3.2 3.2 3.2h13.3 6.3q0 0 0.1 0 0 0 0 0h3.2c1.7 0 3.1 1.4 3.1 3.2 0 1.7-1.4 3.1-3.1 3.1h-1.8-1.6c-1.7 0-3.1 1.4-3.1 3.2 0 1.7 1.4 3.1 3.1 3.1h4.7q0 0 0 0h9.5c1.8 0 3.2 1.4 3.2 3.2 0 1.7-1.4 3.1-3.1 3.1h-3.8-2.9q0 0-0.1 0c-1.7 0.1-3.1 1.5-3.1 3.2 0 1.7 1.5 3.2 3.2 3.2h19.6q0.4 0 0.7-0.1 0.1 0 0.2 0c15.6 0 28.2-12.6 28.2-28.2 0-14.9-11.6-27-26.2-28z"/>
							<path id="Layer" class="s1" d="m175.9 292.5c0-1.8-1.4-3.2-3.1-3.2h-14.6c-1.7 0-3.1 1.4-3.1 3.2 0 1.7 1.4 3.1 3.1 3.1h14.6c1.7 0 3.1-1.4 3.1-3.1z"/>
							<path id="Layer" class="s1" d="m180 302.1h-5.3c-1.8 0-3.2 1.5-3.2 3.2 0 1.7 1.4 3.2 3.2 3.2h5.3c1.7 0 3.1-1.5 3.1-3.2 0-1.7-1.4-3.2-3.1-3.2z"/>
							<path id="Layer" class="s1" d="m167.6 258.3h13.1c1.4-0.3 2.4-1.5 2.4-3 0-1.8-1.4-3.2-3.1-3.2h-11.7c-1.7 0-3.1 1.4-3.1 3.2 0 1.5 1 2.7 2.4 3z"/>
							<path id="Layer" class="s1" d="m160.6 270.8h3.6q0.6 0 1.2-0.2c1.1-0.5 2-1.6 2-3 0-1.7-1.4-3.1-3.2-3.1h-8.2c-1.7 0-3.2 1.4-3.2 3.1 0 1.8 1.5 3.2 3.2 3.2z"/>
						</g>
					</g>
					<path id="Layer" class="s1" d="m229.7 300.2c-11 11-28.8 11-39.8 0-11.1-11-11.1-28.8 0-39.8 11-11.1 28.8-11.1 39.8 0 11 11 11 28.8 0 39.8z"/>
					<path id="Layer" class="s4" d="m209.8 292.8c-7 0-12.6-5.6-12.6-12.5 0-7 5.6-12.6 12.6-12.6 6.9 0 12.5 5.6 12.5 12.6 0 6.9-5.6 12.5-12.5 12.5z"/>
				</g>
				<path id="Layer" class="s1" d="m324.5 286.8c-3.6 15.2-18.8 24.5-34 20.9-15.1-3.6-24.4-18.8-20.8-34 3.6-15.1 18.8-24.4 33.9-20.8 15.2 3.6 24.5 18.8 20.9 33.9z"/>
				<path id="Layer" class="s4" d="m297.1 292.8c-7 0-12.6-5.6-12.6-12.5 0-7 5.6-12.6 12.6-12.6 6.9 0 12.5 5.6 12.5 12.6 0 6.9-5.6 12.5-12.5 12.5z"/>
				<path id="Layer" class="s0" d="m294.8 198.7c-6 0-10.9-4.9-10.9-10.9 0-6 4.9-10.9 10.9-10.9"/>
				<g id="Layer">
					<path id="Layer" fill-rule="evenodd" class="s1" d="m302.5 187.8c0 6-4.9 10.9-10.9 10.9v-21.8c6 0 10.9 4.9 10.9 10.9zm-9 8.8c4.1-0.9 7.1-4.5 7.1-8.8 0-4.3-3-7.9-7.1-8.8z"/>
				</g>
				<path id="Layer" class="s5" d="m290 176h6v24.1h-6z"/>
				<g id="Layer">
					<path id="Layer" class="s5" d="m276.4 188h-20.8"/>
					<path id="Layer" class="s5" d="m276.4 190.5h-20.8c-1.4 0-2.5-1.1-2.5-2.5 0-1.4 1.1-2.5 2.5-2.5h20.8c1.4 0 2.5 1.1 2.5 2.5 0 1.4-1.1 2.5-2.5 2.5z"/>
				</g>
				<g id="Layer">
					<path id="Layer" class="s1" d="m264.1 188h-8"/>
					<path id="Layer" class="s1" d="m264.1 191.7h-8c-2 0-3.7-1.7-3.7-3.7 0-2 1.7-3.6 3.7-3.6h8c2 0 3.7 1.6 3.7 3.6 0 2-1.7 3.7-3.7 3.7z"/>
				</g>
				<path id="Layer" class="s6" d="m225.5 190.3h-13.6l-10 16.9 11.9-3.2-9 18.3 24.2-25h-12.8z"/>
			</g>
		</g>
	</g>
	<g id="DESIGNED_BY_FREEPIK">
		<g id="Layer">
			<g id="XMLID_929_">
			</g>
			<g id="XMLID_365_">
				<g id="XMLID_380_">
				</g>
				<g id="XMLID_366_">
				</g>
			</g>
		</g>
	</g>
</svg>